<svg width="15" height="15" viewBox="0 0 15 15" fill="none" xmlns="http://www.w3.org/2000/svg">
<g clip-path="url(#clip0_214_6366)">
<path d="M8.00341 7.39288C7.84449 7.46189 7.67309 7.4975 7.49984 7.4975C7.32658 7.4975 7.15518 7.46189 6.99626 7.39288L0.889122 4.56431C0.789952 4.51429 0.706613 4.43773 0.648385 4.34314C0.590157 4.24856 0.559326 4.13967 0.559326 4.0286C0.559326 3.91753 0.590157 3.80864 0.648385 3.71405C0.706613 3.61947 0.789952 3.5429 0.889122 3.49288L6.99626 0.642885C7.15518 0.573878 7.32658 0.538269 7.49984 0.538269C7.67309 0.538269 7.84449 0.573878 8.00341 0.642885L14.1106 3.47146C14.2097 3.52148 14.2931 3.59804 14.3513 3.69262C14.4095 3.78721 14.4403 3.8961 14.4403 4.00717C14.4403 4.11824 14.4095 4.22713 14.3513 4.32172C14.2931 4.4163 14.2097 4.49287 14.1106 4.54288L8.00341 7.39288Z" stroke="#0F49FF" stroke-linecap="round" stroke-linejoin="round"/>
<path d="M14.4642 7.875L7.9285 10.8857C7.78891 10.9494 7.63728 10.9823 7.48386 10.9823C7.33044 10.9823 7.1788 10.9494 7.03922 10.8857L0.535645 7.875" stroke="#0F49FF" stroke-linecap="round" stroke-linejoin="round"/>
<path d="M14.4642 11.3572L7.9285 14.3679C7.78891 14.4316 7.63728 14.4645 7.48386 14.4645C7.33044 14.4645 7.1788 14.4316 7.03922 14.3679L0.535645 11.3572" stroke="#0F49FF" stroke-linecap="round" stroke-linejoin="round"/>
</g>
<defs>
<clipPath id="clip0_214_6366">
<rect width="15" height="15" fill="white"/>
</clipPath>
</defs>
</svg>
