<svg width="16" height="17" viewBox="0 0 16 17" fill="none" xmlns="http://www.w3.org/2000/svg">
<path d="M7.99986 3.83332C8.11831 3.83332 8.23675 3.87981 8.33027 3.97942L10.5309 6.32354C10.7117 6.51612 10.7117 6.83487 10.5309 7.02744C10.3501 7.22002 10.0509 7.22002 9.87009 7.02744L7.99986 5.03527L6.12962 7.02744C5.94883 7.22002 5.64959 7.22002 5.4688 7.02744C5.28802 6.83487 5.28802 6.51612 5.4688 6.32354L7.66945 3.97942C7.76296 3.87981 7.88141 3.83332 7.99986 3.83332Z" fill="white" fill-opacity="0.25"/>
<path d="M7.9999 13.1667C7.88145 13.1667 7.763 13.1202 7.66949 13.0206L5.46884 10.6765C5.28805 10.4839 5.28805 10.1651 5.46884 9.97256C5.64963 9.77998 5.94887 9.77998 6.12966 9.97256L7.9999 11.9647L9.87013 9.97256C10.0509 9.77998 10.3502 9.77998 10.531 9.97256C10.7117 10.1651 10.7117 10.4839 10.531 10.6765L8.33031 13.0206C8.23679 13.1202 8.11835 13.1667 7.9999 13.1667Z" fill="white" fill-opacity="0.25"/>
</svg>
