<svg width="12" height="13" viewBox="0 0 12 13" fill="none" xmlns="http://www.w3.org/2000/svg">
<path d="M6 4.78882L7.56722 6.37691L6 7.965L4.43278 6.37691L6 4.78882Z" fill="#EFBA2F"/>
<path d="M1.56714 4.81049L3.13436 6.39858L1.56714 7.98667L-8.4043e-05 6.39858L1.56714 4.81049Z" fill="#EFBA2F"/>
<path d="M5.9104 0.5L7.47762 2.08809L3.87301 5.7407L2.30579 4.15261L5.9104 0.5Z" fill="#EFBA2F"/>
<path d="M7.99463 5.76227L9.56185 4.17418L5.95724 0.52157L4.39002 2.10966L7.99463 5.76227Z" fill="#EFBA2F"/>
<path d="M5.95728 12.4999L4.39005 10.9118L7.99467 7.25924L9.56189 8.84733L5.95728 12.4999Z" fill="#EFBA2F"/>
<path d="M3.87305 7.23767L2.30582 8.82576L5.91044 12.4784L7.47766 10.8903L3.87305 7.23767Z" fill="#EFBA2F"/>
<path d="M10.4329 4.81049L12.0001 6.39858L10.4329 7.98667L8.86564 6.39858L10.4329 4.81049Z" fill="#EFBA2F"/>
</svg>
