<svg width="334" height="133" viewBox="0 0 334 133" fill="none" xmlns="http://www.w3.org/2000/svg">
<g clip-path="url(#clip0_214_6494)">
<rect width="334" height="133" rx="12" fill="#221239"/>
<g opacity="0.35" filter="url(#filter0_d_214_6494)">
<line x1="454.349" y1="-121.471" x2="23.3488" y2="570.529" stroke="#C63DC5" stroke-width="2"/>
</g>
<g opacity="0.35" filter="url(#filter1_d_214_6494)">
<line x1="453.735" y1="-121.028" x2="-46.2648" y2="-0.0280532" stroke="#C63DC5" stroke-width="2"/>
</g>
<g opacity="0.35" filter="url(#filter2_d_214_6494)">
<line x1="454.469" y1="-121.754" x2="252.469" y2="675.246" stroke="#61D3A4" stroke-width="2"/>
</g>
<g opacity="0.35" filter="url(#filter3_d_214_6494)">
<line x1="454.127" y1="-121.221" x2="-15.8733" y2="256.779" stroke="#61D3A4" stroke-width="2"/>
</g>
<g filter="url(#filter4_d_214_6494)">
<path d="M101.448 48H93.7676V14.4H99.6236C103.848 14.4 107.032 15.184 109.176 16.752C111.32 18.288 112.392 20.464 112.392 23.28C112.392 26.48 111.048 28.832 108.36 30.336C112.264 31.808 114.216 34.576 114.216 38.64C114.216 41.52 113.16 43.808 111.048 45.504C108.936 47.168 105.736 48 101.448 48ZM101.448 46.56C102.952 46.56 104.328 46.448 105.576 46.224C106.824 45.968 108.008 45.568 109.128 45.024C110.28 44.448 111.176 43.616 111.816 42.528C112.456 41.44 112.776 40.144 112.776 38.64C112.776 35.216 111.128 32.896 107.832 31.68L104.952 30.624L107.64 29.088C109.848 27.872 110.952 25.936 110.952 23.28C110.952 18.32 107.176 15.84 99.6236 15.84H95.2076V46.56H101.448ZM121.373 20.16H122.812V48H121.373V20.16ZM149.919 20.16V21.6H139.839V48H138.399V21.6H128.319V20.16H149.919ZM156.843 45.072C155.115 42.8 154.251 39.136 154.251 34.08C154.251 29.024 155.115 25.36 156.843 23.088C158.571 20.816 161.435 19.68 165.435 19.68C169.435 19.68 172.315 20.784 174.075 22.992L173.019 23.952C171.611 22.064 169.083 21.12 165.435 21.12C163.835 21.12 162.491 21.296 161.403 21.648C160.315 21.968 159.307 22.592 158.379 23.52C157.483 24.416 156.811 25.744 156.363 27.504C155.915 29.232 155.691 31.424 155.691 34.08C155.691 36.736 155.915 38.944 156.363 40.704C156.811 42.432 157.483 43.76 158.379 44.688C159.307 45.584 160.315 46.208 161.403 46.56C162.491 46.88 163.835 47.04 165.435 47.04C169.083 47.04 171.611 46.096 173.019 44.208L174.075 45.168C172.315 47.376 169.435 48.48 165.435 48.48C161.435 48.48 158.571 47.344 156.843 45.072ZM195.248 21.648C194.16 21.296 192.816 21.12 191.216 21.12C189.616 21.12 188.272 21.296 187.184 21.648C186.096 21.968 185.088 22.592 184.16 23.52C183.264 24.416 182.592 25.744 182.144 27.504C181.696 29.232 181.472 31.424 181.472 34.08C181.472 36.736 181.696 38.944 182.144 40.704C182.592 42.432 183.264 43.76 184.16 44.688C185.088 45.584 186.096 46.208 187.184 46.56C188.272 46.88 189.616 47.04 191.216 47.04C192.816 47.04 194.16 46.88 195.248 46.56C196.336 46.208 197.328 45.584 198.224 44.688C199.152 43.76 199.84 42.432 200.288 40.704C200.736 38.944 200.96 36.736 200.96 34.08C200.96 31.424 200.736 29.232 200.288 27.504C199.84 25.744 199.152 24.416 198.224 23.52C197.328 22.592 196.336 21.968 195.248 21.648ZM199.808 45.072C198.08 47.344 195.216 48.48 191.216 48.48C187.216 48.48 184.352 47.344 182.624 45.072C180.896 42.8 180.032 39.136 180.032 34.08C180.032 29.024 180.896 25.36 182.624 23.088C184.352 20.816 187.216 19.68 191.216 19.68C195.216 19.68 198.08 20.816 199.808 23.088C201.536 25.36 202.4 29.024 202.4 34.08C202.4 39.136 201.536 42.8 199.808 45.072ZM210.341 20.16H211.781V48H210.341V20.16ZM220.888 48V20.16H222.328L237.976 45.36V20.16H239.416V48H237.976L222.328 22.752V48H220.888Z" fill="#61D3A4"/>
</g>
<g filter="url(#filter5_d_214_6494)">
<path d="M89.4234 68.16L99.8874 92.784L107.135 75.744L114.335 92.784L124.175 69.6H93.2154V68.16H126.335L114.335 96.48L107.135 79.44L99.8874 96.48L87.8874 68.16H89.4234ZM134.299 94.56H149.947L140.107 71.376L129.643 96H128.107L140.107 67.68L152.107 96H134.299V94.56ZM173.615 94.56V96H157.583V68.16H159.023V94.56H173.615ZM195.178 94.56V96H179.146V68.16H180.586V94.56H195.178ZM219.332 93.168C217.572 95.376 214.692 96.48 210.692 96.48C206.692 96.48 203.828 95.344 202.1 93.072C200.372 90.8 199.508 87.136 199.508 82.08C199.508 77.024 200.372 73.36 202.1 71.088C203.828 68.816 206.692 67.68 210.692 67.68C215.332 67.68 218.484 69.2 220.148 72.24L208.388 82.08H206.132L218.276 71.952C216.868 70.064 214.34 69.12 210.692 69.12C209.092 69.12 207.748 69.296 206.66 69.648C205.572 69.968 204.564 70.592 203.636 71.52C202.74 72.416 202.068 73.744 201.62 75.504C201.172 77.232 200.948 79.424 200.948 82.08C200.948 84.736 201.172 86.944 201.62 88.704C202.068 90.432 202.74 91.76 203.636 92.688C204.564 93.584 205.572 94.208 206.66 94.56C207.748 94.88 209.092 95.04 210.692 95.04C214.34 95.04 216.868 94.096 218.276 92.208L219.332 93.168ZM245.005 68.16V69.6H234.925V96H233.485V69.6H223.405V68.16H245.005Z" fill="#61D3A4"/>
</g>
<path d="M111.212 117.224H108.308V116.504H114.908V117.224H112.004V125H111.212V117.224ZM116.219 116.504H117.011V120.248H121.763V116.504H122.555V125H121.763V120.968H117.011V125H116.219V116.504ZM124.879 116.504H130.075V117.224H125.671V120.248H129.799V120.968H125.671V124.28H130.267V125H124.879V116.504ZM135.109 116.504H140.197V117.224H135.901V120.248H139.897V120.968H135.901V125H135.109V116.504ZM147.813 121.748C147.813 122.204 147.761 122.64 147.657 123.056C147.553 123.472 147.377 123.84 147.129 124.16C146.889 124.48 146.569 124.736 146.169 124.928C145.777 125.12 145.293 125.216 144.717 125.216C144.141 125.216 143.653 125.12 143.253 124.928C142.861 124.736 142.541 124.48 142.293 124.16C142.053 123.84 141.881 123.472 141.777 123.056C141.673 122.64 141.621 122.204 141.621 121.748V116.504H142.413V121.544C142.413 121.848 142.441 122.172 142.497 122.516C142.553 122.86 142.661 123.18 142.821 123.476C142.989 123.772 143.221 124.016 143.517 124.208C143.821 124.4 144.221 124.496 144.717 124.496C145.213 124.496 145.609 124.4 145.905 124.208C146.209 124.016 146.441 123.772 146.601 123.476C146.769 123.18 146.881 122.86 146.937 122.516C146.993 122.172 147.021 121.848 147.021 121.544V116.504H147.813V121.748ZM151.864 117.224H148.96V116.504H155.56V117.224H152.656V125H151.864V117.224ZM162.907 121.748C162.907 122.204 162.855 122.64 162.751 123.056C162.647 123.472 162.471 123.84 162.223 124.16C161.983 124.48 161.663 124.736 161.263 124.928C160.871 125.12 160.387 125.216 159.811 125.216C159.235 125.216 158.747 125.12 158.347 124.928C157.955 124.736 157.635 124.48 157.387 124.16C157.147 123.84 156.975 123.472 156.871 123.056C156.767 122.64 156.715 122.204 156.715 121.748V116.504H157.507V121.544C157.507 121.848 157.535 122.172 157.591 122.516C157.647 122.86 157.755 123.18 157.915 123.476C158.083 123.772 158.315 124.016 158.611 124.208C158.915 124.4 159.315 124.496 159.811 124.496C160.307 124.496 160.703 124.4 160.999 124.208C161.303 124.016 161.535 123.772 161.695 123.476C161.863 123.18 161.975 122.86 162.031 122.516C162.087 122.172 162.115 121.848 162.115 121.544V116.504H162.907V121.748ZM165.866 120.248H167.546C167.962 120.248 168.298 120.196 168.554 120.092C168.818 119.988 169.022 119.86 169.166 119.708C169.31 119.556 169.406 119.392 169.454 119.216C169.51 119.04 169.538 118.88 169.538 118.736C169.538 118.592 169.51 118.432 169.454 118.256C169.406 118.08 169.31 117.916 169.166 117.764C169.022 117.612 168.818 117.484 168.554 117.38C168.298 117.276 167.962 117.224 167.546 117.224H165.866V120.248ZM165.074 116.504H167.306C167.418 116.504 167.57 116.508 167.762 116.516C167.954 116.524 168.162 116.548 168.386 116.588C168.61 116.628 168.838 116.692 169.07 116.78C169.302 116.868 169.51 116.996 169.694 117.164C169.878 117.332 170.03 117.544 170.15 117.8C170.27 118.056 170.33 118.368 170.33 118.736C170.33 119.144 170.258 119.48 170.114 119.744C169.978 120.008 169.802 120.224 169.586 120.392C169.378 120.552 169.146 120.672 168.89 120.752C168.634 120.832 168.39 120.888 168.158 120.92L170.63 125H169.73L167.342 120.968H165.866V125H165.074V116.504ZM172.187 116.504H177.383V117.224H172.979V120.248H177.107V120.968H172.979V124.28H177.575V125H172.187V116.504ZM182.418 116.504H183.21V125H182.418V116.504ZM185.763 123.428C185.971 123.788 186.239 124.056 186.567 124.232C186.903 124.408 187.283 124.496 187.707 124.496C187.971 124.496 188.219 124.456 188.451 124.376C188.683 124.296 188.883 124.184 189.051 124.04C189.227 123.896 189.363 123.724 189.459 123.524C189.563 123.316 189.615 123.084 189.615 122.828C189.615 122.532 189.551 122.288 189.423 122.096C189.303 121.904 189.139 121.748 188.931 121.628C188.723 121.5 188.487 121.392 188.223 121.304C187.967 121.216 187.699 121.128 187.419 121.04C187.147 120.952 186.879 120.852 186.615 120.74C186.359 120.628 186.127 120.484 185.919 120.308C185.711 120.124 185.543 119.896 185.415 119.624C185.295 119.352 185.235 119.016 185.235 118.616C185.235 118.24 185.307 117.908 185.451 117.62C185.603 117.324 185.803 117.08 186.051 116.888C186.307 116.688 186.599 116.54 186.927 116.444C187.255 116.34 187.599 116.288 187.959 116.288C188.423 116.288 188.851 116.372 189.243 116.54C189.643 116.7 189.987 116.972 190.275 117.356L189.591 117.848C189.391 117.568 189.155 117.36 188.883 117.224C188.619 117.08 188.303 117.008 187.935 117.008C187.679 117.008 187.435 117.044 187.203 117.116C186.971 117.18 186.767 117.28 186.591 117.416C186.423 117.544 186.287 117.708 186.183 117.908C186.079 118.108 186.027 118.344 186.027 118.616C186.027 119.04 186.135 119.368 186.351 119.6C186.567 119.824 186.835 120.004 187.155 120.14C187.483 120.268 187.835 120.384 188.211 120.488C188.595 120.584 188.947 120.716 189.267 120.884C189.595 121.052 189.867 121.288 190.083 121.592C190.299 121.888 190.407 122.3 190.407 122.828C190.407 123.212 190.335 123.552 190.191 123.848C190.047 124.144 189.851 124.396 189.603 124.604C189.363 124.804 189.083 124.956 188.763 125.06C188.443 125.164 188.111 125.216 187.767 125.216C187.207 125.216 186.691 125.12 186.219 124.928C185.747 124.728 185.343 124.396 185.007 123.932L185.763 123.428ZM195.32 116.504H196.34L201.512 123.944H201.536V116.504H202.328V125H201.308L196.136 117.56H196.112V125H195.32V116.504ZM204.108 120.752C204.108 120.104 204.216 119.508 204.432 118.964C204.648 118.42 204.948 117.952 205.332 117.56C205.716 117.16 206.176 116.848 206.712 116.624C207.256 116.4 207.852 116.288 208.5 116.288C209.148 116.288 209.74 116.4 210.276 116.624C210.82 116.848 211.284 117.16 211.668 117.56C212.052 117.952 212.352 118.42 212.568 118.964C212.784 119.508 212.892 120.104 212.892 120.752C212.892 121.4 212.784 122 212.568 122.552C212.352 123.096 212.052 123.568 211.668 123.968C211.284 124.36 210.82 124.668 210.276 124.892C209.74 125.108 209.148 125.216 208.5 125.216C207.852 125.216 207.256 125.108 206.712 124.892C206.176 124.668 205.716 124.36 205.332 123.968C204.948 123.568 204.648 123.096 204.432 122.552C204.216 122 204.108 121.4 204.108 120.752ZM204.9 120.752C204.9 121.28 204.984 121.772 205.152 122.228C205.32 122.684 205.56 123.08 205.872 123.416C206.184 123.752 206.56 124.016 207 124.208C207.448 124.4 207.948 124.496 208.5 124.496C209.052 124.496 209.548 124.4 209.988 124.208C210.436 124.016 210.816 123.752 211.128 123.416C211.44 123.08 211.68 122.684 211.848 122.228C212.016 121.772 212.1 121.28 212.1 120.752C212.1 120.224 212.016 119.732 211.848 119.276C211.68 118.82 211.44 118.424 211.128 118.088C210.816 117.752 210.436 117.488 209.988 117.296C209.548 117.104 209.052 117.008 208.5 117.008C207.948 117.008 207.448 117.104 207 117.296C206.56 117.488 206.184 117.752 205.872 118.088C205.56 118.424 205.32 118.82 205.152 119.276C204.984 119.732 204.9 120.224 204.9 120.752ZM213.564 116.504H214.38L216.492 124.028H216.516L218.664 116.504H219.672L221.82 124.028H221.844L223.956 116.504H224.772L222.3 125H221.328L219.18 117.44H219.156L217.008 125H216.036L213.564 116.504Z" fill="white"/>
</g>
<defs>
<filter id="filter0_d_214_6494" x="7.5" y="-132" width="462.698" height="723.057" filterUnits="userSpaceOnUse" color-interpolation-filters="sRGB">
<feFlood flood-opacity="0" result="BackgroundImageFix"/>
<feColorMatrix in="SourceAlpha" type="matrix" values="0 0 0 0 0 0 0 0 0 0 0 0 0 0 0 0 0 0 127 0" result="hardAlpha"/>
<feOffset dy="5"/>
<feGaussianBlur stdDeviation="7.5"/>
<feColorMatrix type="matrix" values="0 0 0 0 0.737255 0 0 0 0 0.223529 0 0 0 0 0.796078 0 0 0 0.5 0"/>
<feBlend mode="normal" in2="BackgroundImageFix" result="effect1_dropShadow_214_6494"/>
<feBlend mode="normal" in="SourceGraphic" in2="effect1_dropShadow_214_6494" result="shape"/>
</filter>
<filter id="filter1_d_214_6494" x="-61.5" y="-132" width="530.47" height="152.944" filterUnits="userSpaceOnUse" color-interpolation-filters="sRGB">
<feFlood flood-opacity="0" result="BackgroundImageFix"/>
<feColorMatrix in="SourceAlpha" type="matrix" values="0 0 0 0 0 0 0 0 0 0 0 0 0 0 0 0 0 0 127 0" result="hardAlpha"/>
<feOffset dy="5"/>
<feGaussianBlur stdDeviation="7.5"/>
<feColorMatrix type="matrix" values="0 0 0 0 0.737255 0 0 0 0 0.223529 0 0 0 0 0.796078 0 0 0 0.5 0"/>
<feBlend mode="normal" in2="BackgroundImageFix" result="effect1_dropShadow_214_6494"/>
<feBlend mode="normal" in="SourceGraphic" in2="effect1_dropShadow_214_6494" result="shape"/>
</filter>
<filter id="filter2_d_214_6494" x="236.5" y="-132" width="233.939" height="827.491" filterUnits="userSpaceOnUse" color-interpolation-filters="sRGB">
<feFlood flood-opacity="0" result="BackgroundImageFix"/>
<feColorMatrix in="SourceAlpha" type="matrix" values="0 0 0 0 0 0 0 0 0 0 0 0 0 0 0 0 0 0 127 0" result="hardAlpha"/>
<feOffset dy="5"/>
<feGaussianBlur stdDeviation="7.5"/>
<feColorMatrix type="matrix" values="0 0 0 0 0.737255 0 0 0 0 0.223529 0 0 0 0 0.796078 0 0 0 0.5 0"/>
<feBlend mode="normal" in2="BackgroundImageFix" result="effect1_dropShadow_214_6494"/>
<feBlend mode="normal" in="SourceGraphic" in2="effect1_dropShadow_214_6494" result="shape"/>
</filter>
<filter id="filter3_d_214_6494" x="-31.5" y="-132" width="501.253" height="409.559" filterUnits="userSpaceOnUse" color-interpolation-filters="sRGB">
<feFlood flood-opacity="0" result="BackgroundImageFix"/>
<feColorMatrix in="SourceAlpha" type="matrix" values="0 0 0 0 0 0 0 0 0 0 0 0 0 0 0 0 0 0 127 0" result="hardAlpha"/>
<feOffset dy="5"/>
<feGaussianBlur stdDeviation="7.5"/>
<feColorMatrix type="matrix" values="0 0 0 0 0.737255 0 0 0 0 0.223529 0 0 0 0 0.796078 0 0 0 0.5 0"/>
<feBlend mode="normal" in2="BackgroundImageFix" result="effect1_dropShadow_214_6494"/>
<feBlend mode="normal" in="SourceGraphic" in2="effect1_dropShadow_214_6494" result="shape"/>
</filter>
<filter id="filter4_d_214_6494" x="83.7676" y="9.39999" width="165.648" height="54.08" filterUnits="userSpaceOnUse" color-interpolation-filters="sRGB">
<feFlood flood-opacity="0" result="BackgroundImageFix"/>
<feColorMatrix in="SourceAlpha" type="matrix" values="0 0 0 0 0 0 0 0 0 0 0 0 0 0 0 0 0 0 127 0" result="hardAlpha"/>
<feOffset dy="5"/>
<feGaussianBlur stdDeviation="5"/>
<feColorMatrix type="matrix" values="0 0 0 0 0.380392 0 0 0 0 0.827451 0 0 0 0 0.643137 0 0 0 1 0"/>
<feBlend mode="normal" in2="BackgroundImageFix" result="effect1_dropShadow_214_6494"/>
<feBlend mode="normal" in="SourceGraphic" in2="effect1_dropShadow_214_6494" result="shape"/>
</filter>
<filter id="filter5_d_214_6494" x="77.8875" y="62.68" width="177.118" height="48.8" filterUnits="userSpaceOnUse" color-interpolation-filters="sRGB">
<feFlood flood-opacity="0" result="BackgroundImageFix"/>
<feColorMatrix in="SourceAlpha" type="matrix" values="0 0 0 0 0 0 0 0 0 0 0 0 0 0 0 0 0 0 127 0" result="hardAlpha"/>
<feOffset dy="5"/>
<feGaussianBlur stdDeviation="5"/>
<feColorMatrix type="matrix" values="0 0 0 0 0.380392 0 0 0 0 0.827451 0 0 0 0 0.643137 0 0 0 1 0"/>
<feBlend mode="normal" in2="BackgroundImageFix" result="effect1_dropShadow_214_6494"/>
<feBlend mode="normal" in="SourceGraphic" in2="effect1_dropShadow_214_6494" result="shape"/>
</filter>
<clipPath id="clip0_214_6494">
<rect width="334" height="133" rx="12" fill="white"/>
</clipPath>
</defs>
</svg>
