<svg width="335" height="133" viewBox="0 0 335 133" fill="none" xmlns="http://www.w3.org/2000/svg">
<g clip-path="url(#clip0_214_6505)">
<rect width="335" height="133" rx="12" fill="#080A19"/>
<g opacity="0.25" clip-path="url(#clip1_214_6505)">
<circle cx="291" cy="66" r="248.5" stroke="#C7A974"/>
<path d="M539.5 66C539.5 107.011 511.792 144.225 466.812 171.213C421.842 198.195 359.684 214.9 291 214.9C222.316 214.9 160.158 198.195 115.188 171.213C70.2076 144.225 42.5 107.011 42.5 66C42.5 24.989 70.2076 -12.225 115.188 -39.213C160.158 -66.1951 222.316 -82.9 291 -82.9C359.684 -82.9 421.842 -66.1951 466.812 -39.213C511.792 -12.225 539.5 24.989 539.5 66Z" stroke="#C7A974"/>
<path d="M466.717 -109.716C495.716 -80.7171 502.438 -34.8106 489.716 16.0785C476.996 66.9563 444.856 122.721 396.289 171.288C347.722 219.855 291.957 251.995 241.08 264.715C190.191 277.437 144.284 270.715 115.285 241.716C86.2857 212.717 79.5637 166.81 92.286 115.921C105.005 65.0432 137.145 9.2788 185.713 -39.2884C234.28 -87.8556 290.044 -119.996 340.922 -132.715C391.811 -145.437 437.718 -138.715 466.717 -109.716Z" stroke="#C7A974"/>
<path d="M115.284 -109.716C144.283 -138.715 190.19 -145.437 241.079 -132.715C291.956 -119.996 347.721 -87.8557 396.288 -39.2885C444.855 9.27875 476.995 65.0432 489.715 115.921C502.437 166.81 495.715 212.717 466.716 241.716C437.717 270.715 391.81 277.437 340.921 264.715C290.043 251.995 234.279 219.855 185.712 171.288C137.144 122.721 105.004 66.9563 92.285 16.0785C79.5627 -34.8106 86.2847 -80.7171 115.284 -109.716Z" stroke="#C7A974"/>
<path d="M291 -182.5C332.011 -182.5 369.225 -154.792 396.213 -109.812C423.195 -64.8423 439.9 -2.68442 439.9 66C439.9 134.684 423.195 196.842 396.213 241.812C369.225 286.792 332.011 314.5 291 314.5C249.989 314.5 212.775 286.792 185.787 241.812C158.805 196.842 142.1 134.684 142.1 66C142.1 -2.68442 158.805 -64.8423 185.787 -109.812C212.775 -154.792 249.989 -182.5 291 -182.5Z" stroke="#C7A974"/>
</g>
<g clip-path="url(#clip2_214_6505)">
<circle cx="167.5" cy="47" r="34.475" stroke="#C7A974" stroke-width="1.05"/>
<path d="M201.975 47C201.975 52.5421 198.228 57.6493 191.979 61.3991C185.739 65.1426 177.086 67.475 167.5 67.475C157.914 67.475 149.261 65.1426 143.021 61.3991C136.772 57.6493 133.025 52.5421 133.025 47C133.025 41.4579 136.772 36.3507 143.021 32.601C149.261 28.8574 157.914 26.525 167.5 26.525C177.086 26.525 185.739 28.8574 191.979 32.601C198.228 36.3507 201.975 41.4579 201.975 47Z" stroke="#C7A974" stroke-width="1.05"/>
<path d="M191.878 22.6225C195.796 26.5414 196.758 32.802 194.991 39.8727C193.226 46.9315 188.757 54.6995 181.978 61.478C175.2 68.2565 167.432 72.7259 160.373 74.4907C153.302 76.2583 147.041 75.2964 143.123 71.3775C139.204 67.4586 138.242 61.198 140.009 54.1273C141.774 47.0685 146.244 39.3004 153.022 32.522C159.801 25.7435 167.569 21.274 174.627 19.5093C181.698 17.7416 187.959 18.7036 191.878 22.6225Z" stroke="#C7A974" stroke-width="1.05"/>
<path d="M143.123 22.6224C147.042 18.7035 153.302 17.7416 160.373 19.5092C167.432 21.274 175.2 25.7434 181.978 32.5219C188.757 39.3004 193.226 47.0684 194.991 54.1273C196.759 61.1979 195.797 67.4585 191.878 71.3774C187.959 75.2963 181.698 76.2583 174.627 74.4906C167.569 72.7259 159.801 68.2564 153.022 61.4779C146.244 54.6995 141.774 46.9314 140.009 39.8726C138.242 32.8019 139.204 26.5413 143.123 22.6224Z" stroke="#C7A974" stroke-width="1.05"/>
<path d="M167.5 12.525C173.042 12.525 178.15 16.2717 181.899 22.5214C185.643 28.7606 187.975 37.4138 187.975 47C187.975 56.5862 185.643 65.2394 181.899 71.4786C178.15 77.7283 173.042 81.475 167.5 81.475C161.958 81.475 156.851 77.7283 153.101 71.4786C149.358 65.2394 147.025 56.5862 147.025 47C147.025 37.4138 149.358 28.7606 153.101 22.5214C156.851 16.2717 161.958 12.525 167.5 12.525Z" stroke="#C7A974" stroke-width="1.05"/>
</g>
<path d="M38.0497 115H45.1151C49.1122 115 51.0724 112.963 51.0724 110.244C51.0724 107.602 49.1974 106.051 47.3395 105.957V105.787C49.044 105.386 50.3906 104.193 50.3906 102.071C50.3906 99.4716 48.5156 97.5455 44.7315 97.5455H38.0497V115ZM41.2116 112.358V107.244H44.6974C46.6491 107.244 47.8594 108.438 47.8594 109.997C47.8594 111.386 46.9048 112.358 44.6122 112.358H41.2116ZM41.2116 104.969V100.153H44.4077C46.2656 100.153 47.2287 101.134 47.2287 102.48C47.2287 104.014 45.9844 104.969 44.3395 104.969H41.2116ZM61.9851 97.5455H58.8232V115H61.9851V97.5455ZM69.642 100.196H75.0369V115H78.1733V100.196H83.5682V97.5455H69.642V100.196ZM105.443 103.435C104.906 99.5568 101.923 97.3068 98.054 97.3068C93.4943 97.3068 90.0597 100.631 90.0597 106.273C90.0597 111.906 93.4517 115.239 98.054 115.239C102.205 115.239 104.957 112.554 105.443 109.222L102.256 109.205C101.855 111.25 100.185 112.401 98.0966 112.401C95.267 112.401 93.2386 110.278 93.2386 106.273C93.2386 102.335 95.25 100.145 98.1051 100.145C100.227 100.145 101.889 101.347 102.256 103.435H105.443ZM128.935 106.273C128.935 100.631 125.492 97.3068 120.915 97.3068C116.33 97.3068 112.896 100.631 112.896 106.273C112.896 111.906 116.33 115.239 120.915 115.239C125.492 115.239 128.935 111.915 128.935 106.273ZM125.756 106.273C125.756 110.244 123.762 112.401 120.915 112.401C118.077 112.401 116.075 110.244 116.075 106.273C116.075 102.301 118.077 100.145 120.915 100.145C123.762 100.145 125.756 102.301 125.756 106.273ZM140.087 97.5455H136.925V115H140.087V97.5455ZM162.854 97.5455H159.71V109.443H159.556L151.34 97.5455H148.511V115H151.673V103.111H151.817L160.042 115H162.854V97.5455ZM185.884 115H187.588L191.636 100.196H191.747L195.795 115H197.5L202.281 97.5455H200.653L196.699 112.554H196.562L192.608 97.5455H190.767L186.812 112.554H186.676L182.722 97.5455H181.102L185.884 115ZM208.828 115L210.695 109.741H218.024L219.891 115H221.561L215.212 97.5455H213.507L207.158 115H208.828ZM211.206 108.31L214.3 99.6165H214.419L217.513 108.31H211.206ZM229.553 115H239.464V113.568H231.146V97.5455H229.553V115ZM248.053 115H257.964V113.568H249.646V97.5455H248.053V115ZM266.553 115H276.848V113.568H268.146V106.98H276.141V105.548H268.146V98.9773H276.678V97.5455H266.553V115ZM284.746 98.9773H290.277V115H291.871V98.9773H297.402V97.5455H284.746V98.9773Z" fill="white"/>
</g>
<defs>
<clipPath id="clip0_214_6505">
<rect width="335" height="133" rx="12" fill="white"/>
</clipPath>
<clipPath id="clip1_214_6505">
<rect width="498" height="498" fill="white" transform="translate(42 -183)"/>
</clipPath>
<clipPath id="clip2_214_6505">
<rect width="70" height="70" fill="white" transform="translate(132.5 12)"/>
</clipPath>
</defs>
</svg>
