<svg width="334" height="133" viewBox="0 0 334 133" fill="none" xmlns="http://www.w3.org/2000/svg">
<g clip-path="url(#clip0_214_6490)">
<rect width="334" height="133" rx="12" fill="#8EC7FF"/>
<path d="M68.6175 49.192C68.6175 48.52 68.3535 48.064 67.8255 47.824C67.3135 47.568 66.4495 47.44 65.2335 47.44V51.112C65.9855 51.112 66.5935 51.056 67.0575 50.944C67.5375 50.832 67.9135 50.64 68.1855 50.368C68.4735 50.08 68.6175 49.688 68.6175 49.192ZM68.9295 55.6C68.9295 55.072 68.7935 54.664 68.5215 54.376C68.2495 54.088 67.8575 53.888 67.3455 53.776C66.8335 53.648 66.1295 53.584 65.2335 53.584V57.736C66.4815 57.736 67.4095 57.584 68.0175 57.28C68.6255 56.96 68.9295 56.4 68.9295 55.6ZM71.8815 52.456C73.3695 53.336 74.1135 54.512 74.1135 55.984C74.1135 56.624 73.9855 57.24 73.7295 57.832C73.4895 58.408 73.1215 58.936 72.6255 59.416C72.1455 59.896 71.5055 60.28 70.7055 60.568C69.9055 60.84 69.0015 60.976 67.9935 60.976H62.4255C61.4495 60.976 60.7455 60.728 60.3135 60.232C59.8975 59.736 59.6895 58.848 59.6895 57.568V47.416C59.6895 46.872 59.7855 46.392 59.9775 45.976C60.1695 45.56 60.4735 45.224 60.8895 44.968C61.3215 44.712 61.8335 44.584 62.4255 44.584H67.9215C69.5215 44.6 70.8495 45.04 71.9055 45.904C72.9775 46.752 73.5135 47.848 73.5135 49.192C73.5135 49.624 73.4735 50.008 73.3935 50.344C73.3295 50.664 73.2255 50.952 73.0815 51.208C72.9375 51.464 72.7695 51.688 72.5775 51.88C72.3855 52.072 72.1535 52.264 71.8815 52.456ZM82.2938 57.4C82.2938 58.648 82.0618 59.56 81.5978 60.136C81.1338 60.712 80.4298 61 79.4858 61C78.5578 61 77.8698 60.752 77.4218 60.256C76.9898 59.76 76.7738 58.872 76.7738 57.592V47.44C76.7738 45.52 77.6778 44.56 79.4858 44.56C80.4138 44.56 81.1098 44.736 81.5738 45.088C82.0538 45.44 82.2938 46.152 82.2938 47.224V57.4ZM94.4018 57.4C94.4018 58.312 94.2898 59.04 94.0658 59.584C93.8418 60.112 93.5298 60.48 93.1298 60.688C92.7458 60.896 92.2338 61 91.5938 61C90.6498 61 89.9618 60.752 89.5298 60.256C89.1138 59.744 88.8978 58.848 88.8818 57.568L88.8338 48.712H86.7938C85.7858 48.712 85.0258 48.552 84.5138 48.232C84.0178 47.912 83.7698 47.344 83.7698 46.528C83.7698 46.032 83.8658 45.64 84.0578 45.352C84.2658 45.064 84.5698 44.864 84.9698 44.752C85.3698 44.624 85.9058 44.56 86.5778 44.56H96.8498C97.7458 44.56 98.3938 44.72 98.7938 45.04C99.1938 45.36 99.3938 45.912 99.3938 46.696C99.3938 47.224 99.2738 47.64 99.0338 47.944C98.8098 48.232 98.5058 48.432 98.1218 48.544C97.7378 48.656 97.2418 48.712 96.6338 48.712H94.4018V57.4ZM109.954 49.072C109.954 48.736 109.81 48.448 109.522 48.208C109.25 47.968 108.922 47.848 108.538 47.848C107.77 47.848 107.138 48.288 106.642 49.168C106.146 50.032 105.898 51.016 105.898 52.12C105.898 52.968 106.058 53.736 106.378 54.424C106.698 55.096 107.162 55.632 107.77 56.032C108.378 56.432 109.082 56.632 109.882 56.632C110.474 56.632 111.042 56.52 111.586 56.296C112.13 56.056 112.57 55.8 112.906 55.528C113.242 55.24 113.586 54.984 113.938 54.76C114.306 54.52 114.626 54.4 114.898 54.4C115.25 54.4 115.554 54.544 115.81 54.832C116.066 55.104 116.194 55.392 116.194 55.696C116.194 56.032 116.09 56.424 115.882 56.872C115.69 57.32 115.378 57.8 114.946 58.312C114.514 58.808 114.01 59.272 113.434 59.704C112.858 60.12 112.138 60.472 111.274 60.76C110.426 61.032 109.53 61.168 108.586 61.168C107.338 61.168 106.178 60.984 105.106 60.616C104.05 60.232 103.13 59.696 102.346 59.008C101.562 58.304 100.946 57.424 100.498 56.368C100.05 55.312 99.8256 54.128 99.8256 52.816C99.8256 50.224 100.602 48.176 102.154 46.672C103.706 45.168 105.738 44.416 108.25 44.416C109.53 44.416 110.714 44.632 111.802 45.064C112.89 45.496 113.754 46.096 114.394 46.864C115.034 47.632 115.354 48.472 115.354 49.384C115.354 50.44 115.002 51.4 114.298 52.264C113.594 53.112 112.682 53.536 111.562 53.536C110.922 53.536 110.346 53.36 109.834 53.008C109.322 52.656 109.066 52.152 109.066 51.496C109.066 51.192 109.21 50.768 109.498 50.224C109.802 49.68 109.954 49.296 109.954 49.072ZM127.046 57.64C127.59 57.64 128.054 57.4 128.438 56.92C128.838 56.44 129.118 55.848 129.278 55.144C129.454 54.44 129.542 53.688 129.542 52.888C129.542 52.072 129.454 51.304 129.278 50.584C129.102 49.848 128.814 49.224 128.414 48.712C128.03 48.2 127.574 47.944 127.046 47.944C126.534 47.944 126.086 48.2 125.702 48.712C125.318 49.224 125.03 49.848 124.838 50.584C124.646 51.32 124.55 52.088 124.55 52.888C124.55 53.688 124.638 54.44 124.814 55.144C125.006 55.848 125.294 56.44 125.678 56.92C126.078 57.4 126.534 57.64 127.046 57.64ZM131.294 60.208C130.03 60.832 128.606 61.144 127.022 61.144C125.454 61.144 124.038 60.832 122.774 60.208C121.526 59.568 120.526 58.616 119.774 57.352C119.022 56.088 118.646 54.6 118.646 52.888C118.646 50.296 119.422 48.24 120.974 46.72C122.542 45.184 124.566 44.416 127.046 44.416C129.526 44.416 131.55 45.184 133.118 46.72C134.686 48.24 135.47 50.296 135.47 52.888C135.47 54.6 135.086 56.088 134.318 57.352C133.566 58.616 132.558 59.568 131.294 60.208ZM143.911 57.4C143.911 58.648 143.679 59.56 143.215 60.136C142.751 60.712 142.047 61 141.103 61C140.175 61 139.487 60.752 139.039 60.256C138.607 59.76 138.391 58.872 138.391 57.592V47.44C138.391 45.52 139.295 44.56 141.103 44.56C142.031 44.56 142.727 44.736 143.191 45.088C143.671 45.44 143.911 46.152 143.911 47.224V57.4ZM162.397 58.72C162.397 59.424 162.189 59.984 161.773 60.4C161.357 60.8 160.749 61 159.949 61C159.741 61 159.533 60.976 159.325 60.928C159.117 60.88 158.893 60.792 158.653 60.664C158.429 60.536 158.229 60.416 158.053 60.304C157.877 60.192 157.653 60.024 157.381 59.8C157.125 59.56 156.917 59.376 156.757 59.248C156.613 59.104 156.381 58.88 156.061 58.576C155.741 58.272 155.509 58.048 155.365 57.904L150.973 53.752V58.96C150.973 59.744 150.821 60.28 150.517 60.568C150.229 60.856 149.765 61 149.125 61C148.421 61 147.901 60.84 147.565 60.52C147.229 60.2 147.061 59.664 147.061 58.912V47.32C147.061 46.408 147.293 45.72 147.757 45.256C148.221 44.792 148.885 44.56 149.749 44.56C150.341 44.56 150.813 44.656 151.165 44.848C151.533 45.024 151.965 45.352 152.461 45.832L158.533 51.88V46.648C158.533 45.96 158.701 45.448 159.037 45.112C159.389 44.76 159.861 44.584 160.453 44.584C161.141 44.584 161.637 44.744 161.941 45.064C162.245 45.384 162.397 45.904 162.397 46.624V58.72ZM186.396 57.232C187.02 57.232 187.452 56.896 187.692 56.224C187.932 55.536 188.052 54.424 188.052 52.888L188.1 47.008C188.1 46.16 188.292 45.544 188.676 45.16C189.076 44.76 189.756 44.56 190.716 44.56C191.308 44.56 191.78 44.656 192.132 44.848C192.5 45.04 192.812 45.416 193.068 45.976C193.324 46.536 193.5 47.296 193.596 48.256C193.692 49.216 193.74 50.488 193.74 52.072C193.74 53.016 193.66 53.896 193.5 54.712C193.34 55.528 193.124 56.24 192.852 56.848C192.58 57.456 192.252 58.008 191.868 58.504C191.5 58.984 191.108 59.384 190.692 59.704C190.276 60.024 189.836 60.296 189.372 60.52C188.908 60.728 188.452 60.88 188.004 60.976C187.572 61.056 187.148 61.096 186.732 61.096C185.292 61.096 183.988 60.64 182.82 59.728C181.668 60.672 180.364 61.144 178.908 61.144C178.284 61.144 177.66 61.056 177.036 60.88C176.412 60.688 175.772 60.368 175.116 59.92C174.476 59.472 173.908 58.92 173.412 58.264C172.916 57.592 172.508 56.728 172.188 55.672C171.884 54.6 171.732 53.416 171.732 52.12C171.732 50.024 171.828 48.44 172.02 47.368C172.228 46.296 172.532 45.568 172.932 45.184C173.348 44.8 173.948 44.608 174.732 44.608C175.388 44.608 175.908 44.704 176.292 44.896C176.676 45.072 176.948 45.336 177.108 45.688C177.268 46.04 177.348 46.496 177.348 47.056L177.372 52.912C177.372 54.448 177.492 55.56 177.732 56.248C177.972 56.936 178.444 57.28 179.148 57.28C179.5 57.28 179.764 57.136 179.94 56.848C180.116 56.544 180.236 56.064 180.3 55.408C180.092 54.48 179.988 53.032 179.988 51.064C179.988 49.96 180.012 49.08 180.06 48.424C180.108 47.768 180.18 47.2 180.276 46.72C180.372 46.24 180.532 45.896 180.756 45.688C180.98 45.48 181.228 45.336 181.5 45.256C181.788 45.16 182.18 45.112 182.676 45.112C182.964 45.112 183.212 45.12 183.42 45.136C183.644 45.152 183.852 45.2 184.044 45.28C184.236 45.36 184.396 45.432 184.524 45.496C184.652 45.56 184.772 45.68 184.884 45.856C184.996 46.032 185.084 46.184 185.148 46.312C185.212 46.44 185.268 46.648 185.316 46.936C185.38 47.224 185.42 47.48 185.436 47.704C185.468 47.912 185.484 48.232 185.484 48.664C185.5 49.08 185.508 49.448 185.508 49.768C185.524 50.072 185.532 50.512 185.532 51.088C185.532 53.104 185.428 54.592 185.22 55.552C185.284 56.128 185.404 56.552 185.58 56.824C185.756 57.096 186.028 57.232 186.396 57.232ZM203.545 48.472C202.857 48.472 202.345 48.672 202.009 49.072C201.689 49.472 201.529 50.184 201.529 51.208V54.04H205.513V51.16C205.513 50.488 205.433 49.952 205.273 49.552C205.113 49.136 204.889 48.856 204.601 48.712C204.329 48.552 203.977 48.472 203.545 48.472ZM205.513 57.352H201.529V58.624C201.529 59.44 201.313 60.04 200.881 60.424C200.449 60.808 199.705 61 198.649 61C198.201 61 197.833 60.936 197.545 60.808C197.257 60.68 197.001 60.464 196.777 60.16C196.569 59.856 196.409 59.416 196.297 58.84C196.201 58.248 196.121 57.544 196.057 56.728C196.009 55.896 195.985 54.848 195.985 53.584C195.985 52.48 196.097 51.472 196.321 50.56C196.561 49.632 196.873 48.848 197.257 48.208C197.657 47.568 198.105 47.008 198.601 46.528C199.097 46.032 199.633 45.648 200.209 45.376C200.801 45.104 201.369 44.904 201.913 44.776C202.473 44.632 203.033 44.56 203.593 44.56C204.265 44.56 204.929 44.656 205.585 44.848C206.241 45.024 206.905 45.336 207.577 45.784C208.249 46.232 208.833 46.792 209.329 47.464C209.841 48.12 210.257 48.976 210.577 50.032C210.897 51.088 211.057 52.272 211.057 53.584C211.057 55.696 210.977 57.264 210.817 58.288C210.673 59.296 210.417 60 210.049 60.4C209.697 60.8 209.145 61 208.393 61C207.337 61 206.593 60.808 206.161 60.424C205.729 60.04 205.513 59.44 205.513 58.624V57.352ZM216.647 61C215.911 60.984 215.319 60.872 214.871 60.664C214.423 60.44 214.087 60.08 213.863 59.584C213.639 59.088 213.527 58.424 213.527 57.592V47.44C213.527 46.592 213.775 45.904 214.271 45.376C214.767 44.832 215.423 44.56 216.239 44.56C217.199 44.56 217.903 44.736 218.351 45.088C218.815 45.44 219.047 46.152 219.047 47.224V56.848H223.151C224.079 56.848 224.727 56.984 225.095 57.256C225.479 57.528 225.671 58.088 225.671 58.936C225.671 59.8 225.455 60.36 225.023 60.616C224.591 60.872 223.887 61 222.911 61H216.647ZM231.249 61C230.513 60.984 229.921 60.872 229.473 60.664C229.025 60.44 228.689 60.08 228.465 59.584C228.241 59.088 228.129 58.424 228.129 57.592V47.44C228.129 46.592 228.377 45.904 228.873 45.376C229.369 44.832 230.025 44.56 230.841 44.56C231.801 44.56 232.505 44.736 232.953 45.088C233.417 45.44 233.649 46.152 233.649 47.224V56.848H237.753C238.681 56.848 239.329 56.984 239.697 57.256C240.081 57.528 240.273 58.088 240.273 58.936C240.273 59.8 240.057 60.36 239.625 60.616C239.193 60.872 238.489 61 237.513 61H231.249ZM252.546 51.256C253.394 51.256 253.986 51.392 254.322 51.664C254.674 51.936 254.85 52.4 254.85 53.056C254.85 53.6 254.642 53.992 254.226 54.232C253.826 54.456 253.194 54.568 252.33 54.568H248.442V57.112L253.65 57.136C254.546 57.136 255.186 57.272 255.57 57.544C255.97 57.8 256.17 58.264 256.17 58.936C256.17 59.704 255.938 60.24 255.474 60.544C255.026 60.848 254.338 61 253.41 61H245.634C244.69 61 243.994 60.752 243.546 60.256C243.114 59.744 242.898 58.848 242.898 57.568V47.44C242.898 45.52 243.81 44.56 245.634 44.56H253.41C254.338 44.56 255.026 44.704 255.474 44.992C255.938 45.28 256.17 45.8 256.17 46.552C256.17 47.256 255.97 47.752 255.57 48.04C255.186 48.312 254.546 48.448 253.65 48.448H248.418V51.256H252.546ZM269.175 57.4C269.175 58.312 269.063 59.04 268.839 59.584C268.615 60.112 268.303 60.48 267.903 60.688C267.519 60.896 267.007 61 266.367 61C265.423 61 264.735 60.752 264.303 60.256C263.887 59.744 263.671 58.848 263.655 57.568L263.607 48.712H261.567C260.559 48.712 259.799 48.552 259.287 48.232C258.791 47.912 258.543 47.344 258.543 46.528C258.543 46.032 258.639 45.64 258.831 45.352C259.039 45.064 259.343 44.864 259.743 44.752C260.143 44.624 260.679 44.56 261.351 44.56H271.623C272.519 44.56 273.167 44.72 273.567 45.04C273.967 45.36 274.167 45.912 274.167 46.696C274.167 47.224 274.047 47.64 273.807 47.944C273.583 48.232 273.279 48.432 272.895 48.544C272.511 48.656 272.015 48.712 271.407 48.712H269.175V57.4Z" fill="#175898"/>
<path d="M110.327 76.3636H111.736V84.0682C111.736 84.8636 111.548 85.5739 111.173 86.1989C110.802 86.8201 110.277 87.3106 109.599 87.6705C108.921 88.0265 108.126 88.2045 107.213 88.2045C106.3 88.2045 105.505 88.0265 104.827 87.6705C104.149 87.3106 103.622 86.8201 103.247 86.1989C102.876 85.5739 102.69 84.8636 102.69 84.0682V76.3636H104.099V83.9545C104.099 84.5227 104.224 85.0284 104.474 85.4716C104.724 85.911 105.08 86.2576 105.543 86.5114C106.009 86.7614 106.565 86.8864 107.213 86.8864C107.861 86.8864 108.418 86.7614 108.884 86.5114C109.349 86.2576 109.705 85.911 109.952 85.4716C110.202 85.0284 110.327 84.5227 110.327 83.9545V76.3636ZM114.368 91.2727V79.2727H115.663V80.6591H115.822C115.921 80.5076 116.057 80.3144 116.232 80.0795C116.41 79.8409 116.663 79.6288 116.993 79.4432C117.326 79.2538 117.777 79.1591 118.345 79.1591C119.08 79.1591 119.728 79.3428 120.288 79.7102C120.849 80.0777 121.286 80.5985 121.601 81.2727C121.915 81.947 122.072 82.7424 122.072 83.6591C122.072 84.5833 121.915 85.3845 121.601 86.0625C121.286 86.7367 120.851 87.2595 120.294 87.6307C119.737 87.9981 119.095 88.1818 118.368 88.1818C117.807 88.1818 117.358 88.089 117.021 87.9034C116.684 87.714 116.425 87.5 116.243 87.2614C116.061 87.0189 115.921 86.8182 115.822 86.6591H115.709V91.2727H114.368ZM115.686 83.6364C115.686 84.2955 115.783 84.8769 115.976 85.3807C116.169 85.8807 116.451 86.2727 116.822 86.5568C117.194 86.8371 117.648 86.9773 118.186 86.9773C118.747 86.9773 119.214 86.8295 119.589 86.5341C119.968 86.2348 120.252 85.8333 120.442 85.3295C120.635 84.822 120.732 84.2576 120.732 83.6364C120.732 83.0227 120.637 82.4697 120.447 81.9773C120.262 81.4811 119.98 81.089 119.601 80.8011C119.226 80.5095 118.754 80.3636 118.186 80.3636C117.641 80.3636 117.182 80.5019 116.811 80.7784C116.44 81.0511 116.16 81.4337 115.97 81.9261C115.781 82.4148 115.686 82.9848 115.686 83.6364ZM126.118 86.4091L126.027 87.0227C125.963 87.4545 125.864 87.9167 125.732 88.4091C125.603 88.9015 125.468 89.3655 125.328 89.8011C125.188 90.2367 125.072 90.5833 124.982 90.8409H123.959C124.008 90.5985 124.072 90.2784 124.152 89.8807C124.232 89.483 124.311 89.0379 124.391 88.5455C124.474 88.0568 124.542 87.5568 124.595 87.0455L124.663 86.4091H126.118ZM138.602 84.4318V79.2727H139.943V88H138.602V86.5227H138.511C138.307 86.9659 137.989 87.3428 137.557 87.6534C137.125 87.9602 136.58 88.1136 135.92 88.1136C135.375 88.1136 134.89 87.9943 134.466 87.7557C134.042 87.5133 133.708 87.1496 133.466 86.6648C133.223 86.1761 133.102 85.5606 133.102 84.8182V79.2727H134.443V84.7273C134.443 85.3636 134.621 85.8712 134.977 86.25C135.337 86.6288 135.795 86.8182 136.352 86.8182C136.686 86.8182 137.025 86.733 137.369 86.5625C137.718 86.392 138.009 86.1307 138.244 85.7784C138.483 85.4261 138.602 84.9773 138.602 84.4318ZM142.399 91.2727V79.2727H143.695V80.6591H143.854C143.952 80.5076 144.089 80.3144 144.263 80.0795C144.441 79.8409 144.695 79.6288 145.024 79.4432C145.357 79.2538 145.808 79.1591 146.376 79.1591C147.111 79.1591 147.759 79.3428 148.32 79.7102C148.88 80.0777 149.318 80.5985 149.632 81.2727C149.946 81.947 150.104 82.7424 150.104 83.6591C150.104 84.5833 149.946 85.3845 149.632 86.0625C149.318 86.7367 148.882 87.2595 148.325 87.6307C147.768 87.9981 147.126 88.1818 146.399 88.1818C145.839 88.1818 145.39 88.089 145.053 87.9034C144.715 87.714 144.456 87.5 144.274 87.2614C144.092 87.0189 143.952 86.8182 143.854 86.6591H143.74V91.2727H142.399ZM143.717 83.6364C143.717 84.2955 143.814 84.8769 144.007 85.3807C144.2 85.8807 144.482 86.2727 144.854 86.5568C145.225 86.8371 145.679 86.9773 146.217 86.9773C146.778 86.9773 147.246 86.8295 147.621 86.5341C148 86.2348 148.284 85.8333 148.473 85.3295C148.666 84.822 148.763 84.2576 148.763 83.6364C148.763 83.0227 148.668 82.4697 148.479 81.9773C148.293 81.4811 148.011 81.089 147.632 80.8011C147.257 80.5095 146.786 80.3636 146.217 80.3636C145.672 80.3636 145.214 80.5019 144.842 80.7784C144.471 81.0511 144.191 81.4337 144.001 81.9261C143.812 82.4148 143.717 82.9848 143.717 83.6364ZM159.217 88.2045C158.664 88.2045 158.162 88.1004 157.712 87.892C157.261 87.6799 156.903 87.375 156.638 86.9773C156.373 86.5758 156.24 86.0909 156.24 85.5227C156.24 85.0227 156.339 84.6174 156.536 84.3068C156.732 83.9924 156.996 83.7462 157.325 83.5682C157.655 83.3902 158.018 83.2576 158.416 83.1705C158.818 83.0795 159.221 83.0076 159.626 82.9545C160.157 82.8864 160.587 82.8352 160.916 82.8011C161.25 82.7633 161.492 82.7008 161.643 82.6136C161.799 82.5265 161.876 82.375 161.876 82.1591V82.1136C161.876 81.553 161.723 81.1174 161.416 80.8068C161.113 80.4962 160.653 80.3409 160.036 80.3409C159.395 80.3409 158.893 80.4811 158.53 80.7614C158.166 81.0417 157.911 81.3409 157.763 81.6591L156.49 81.2045C156.717 80.6742 157.02 80.2614 157.399 79.9659C157.782 79.6667 158.198 79.4583 158.649 79.3409C159.104 79.2197 159.551 79.1591 159.99 79.1591C160.27 79.1591 160.592 79.1932 160.956 79.2614C161.323 79.3258 161.678 79.4602 162.018 79.6648C162.363 79.8693 162.649 80.178 162.876 80.5909C163.104 81.0038 163.217 81.5568 163.217 82.25V88H161.876V86.8182H161.808C161.717 87.0076 161.566 87.2102 161.354 87.4261C161.142 87.642 160.859 87.8258 160.507 87.9773C160.155 88.1288 159.725 88.2045 159.217 88.2045ZM159.422 87C159.952 87 160.399 86.8958 160.763 86.6875C161.13 86.4792 161.407 86.2102 161.592 85.8807C161.782 85.5511 161.876 85.2045 161.876 84.8409V83.6136C161.82 83.6818 161.695 83.7443 161.501 83.8011C161.312 83.8542 161.092 83.9015 160.842 83.9432C160.596 83.9811 160.356 84.0152 160.121 84.0455C159.89 84.072 159.702 84.0947 159.558 84.1136C159.21 84.1591 158.884 84.233 158.581 84.3352C158.282 84.4337 158.039 84.5833 157.854 84.7841C157.672 84.9811 157.581 85.25 157.581 85.5909C157.581 86.0568 157.753 86.4091 158.098 86.6477C158.446 86.8826 158.888 87 159.422 87ZM167.006 82.75V88H165.665V79.2727H166.96V80.6364H167.074C167.278 80.1932 167.589 79.8371 168.006 79.5682C168.422 79.2955 168.96 79.1591 169.619 79.1591C170.21 79.1591 170.727 79.2803 171.17 79.5227C171.614 79.7614 171.958 80.125 172.205 80.6136C172.451 81.0985 172.574 81.7121 172.574 82.4545V88H171.233V82.5455C171.233 81.8598 171.055 81.3258 170.699 80.9432C170.343 80.5568 169.854 80.3636 169.233 80.3636C168.805 80.3636 168.422 80.4564 168.085 80.642C167.752 80.8277 167.489 81.0985 167.295 81.4545C167.102 81.8106 167.006 82.2424 167.006 82.75ZM178.32 88.1818C177.592 88.1818 176.95 87.9981 176.393 87.6307C175.837 87.2595 175.401 86.7367 175.087 86.0625C174.772 85.3845 174.615 84.5833 174.615 83.6591C174.615 82.7424 174.772 81.947 175.087 81.2727C175.401 80.5985 175.839 80.0777 176.399 79.7102C176.96 79.3428 177.607 79.1591 178.342 79.1591C178.911 79.1591 179.359 79.2538 179.689 79.4432C180.022 79.6288 180.276 79.8409 180.45 80.0795C180.628 80.3144 180.767 80.5076 180.865 80.6591H180.979V76.3636H182.32V88H181.024V86.6591H180.865C180.767 86.8182 180.626 87.0189 180.445 87.2614C180.263 87.5 180.003 87.714 179.666 87.9034C179.329 88.089 178.88 88.1818 178.32 88.1818ZM178.501 86.9773C179.039 86.9773 179.494 86.8371 179.865 86.5568C180.236 86.2727 180.518 85.8807 180.712 85.3807C180.905 84.8769 181.001 84.2955 181.001 83.6364C181.001 82.9848 180.907 82.4148 180.717 81.9261C180.528 81.4337 180.248 81.0511 179.876 80.7784C179.505 80.5019 179.047 80.3636 178.501 80.3636C177.933 80.3636 177.46 80.5095 177.081 80.8011C176.706 81.089 176.424 81.4811 176.234 81.9773C176.049 82.4697 175.956 83.0227 175.956 83.6364C175.956 84.2576 176.051 84.822 176.24 85.3295C176.433 85.8333 176.717 86.2348 177.092 86.5341C177.471 86.8295 177.941 86.9773 178.501 86.9773ZM192.03 88.2045C191.477 88.2045 190.975 88.1004 190.524 87.892C190.073 87.6799 189.715 87.375 189.45 86.9773C189.185 86.5758 189.053 86.0909 189.053 85.5227C189.053 85.0227 189.151 84.6174 189.348 84.3068C189.545 83.9924 189.808 83.7462 190.138 83.5682C190.467 83.3902 190.831 83.2576 191.229 83.1705C191.63 83.0795 192.034 83.0076 192.439 82.9545C192.969 82.8864 193.399 82.8352 193.729 82.8011C194.062 82.7633 194.304 82.7008 194.456 82.6136C194.611 82.5265 194.689 82.375 194.689 82.1591V82.1136C194.689 81.553 194.536 81.1174 194.229 80.8068C193.926 80.4962 193.465 80.3409 192.848 80.3409C192.208 80.3409 191.706 80.4811 191.342 80.7614C190.979 81.0417 190.723 81.3409 190.575 81.6591L189.303 81.2045C189.53 80.6742 189.833 80.2614 190.212 79.9659C190.594 79.6667 191.011 79.4583 191.462 79.3409C191.916 79.2197 192.363 79.1591 192.803 79.1591C193.083 79.1591 193.405 79.1932 193.768 79.2614C194.136 79.3258 194.49 79.4602 194.831 79.6648C195.176 79.8693 195.462 80.178 195.689 80.5909C195.916 81.0038 196.03 81.5568 196.03 82.25V88H194.689V86.8182H194.621C194.53 87.0076 194.378 87.2102 194.166 87.4261C193.954 87.642 193.672 87.8258 193.32 87.9773C192.967 88.1288 192.537 88.2045 192.03 88.2045ZM192.234 87C192.765 87 193.212 86.8958 193.575 86.6875C193.943 86.4792 194.219 86.2102 194.405 85.8807C194.594 85.5511 194.689 85.2045 194.689 84.8409V83.6136C194.632 83.6818 194.507 83.7443 194.314 83.8011C194.125 83.8542 193.905 83.9015 193.655 83.9432C193.409 83.9811 193.168 84.0152 192.933 84.0455C192.702 84.072 192.515 84.0947 192.371 84.1136C192.022 84.1591 191.696 84.233 191.393 84.3352C191.094 84.4337 190.852 84.5833 190.666 84.7841C190.484 84.9811 190.393 85.25 190.393 85.5909C190.393 86.0568 190.566 86.4091 190.911 86.6477C191.259 86.8826 191.7 87 192.234 87ZM200.455 88L197.795 79.2727H199.205L201.091 85.9545H201.182L203.045 79.2727H204.477L206.318 85.9318H206.409L208.295 79.2727H209.705L207.045 88H205.727L203.818 81.2955H203.682L201.773 88H200.455ZM214.045 88.2045C213.492 88.2045 212.991 88.1004 212.54 87.892C212.089 87.6799 211.731 87.375 211.466 86.9773C211.201 86.5758 211.068 86.0909 211.068 85.5227C211.068 85.0227 211.167 84.6174 211.364 84.3068C211.561 83.9924 211.824 83.7462 212.153 83.5682C212.483 83.3902 212.847 83.2576 213.244 83.1705C213.646 83.0795 214.049 83.0076 214.455 82.9545C214.985 82.8864 215.415 82.8352 215.744 82.8011C216.078 82.7633 216.32 82.7008 216.472 82.6136C216.627 82.5265 216.705 82.375 216.705 82.1591V82.1136C216.705 81.553 216.551 81.1174 216.244 80.8068C215.941 80.4962 215.481 80.3409 214.864 80.3409C214.223 80.3409 213.722 80.4811 213.358 80.7614C212.994 81.0417 212.739 81.3409 212.591 81.6591L211.318 81.2045C211.545 80.6742 211.848 80.2614 212.227 79.9659C212.61 79.6667 213.027 79.4583 213.477 79.3409C213.932 79.2197 214.379 79.1591 214.818 79.1591C215.098 79.1591 215.42 79.1932 215.784 79.2614C216.152 79.3258 216.506 79.4602 216.847 79.6648C217.191 79.8693 217.477 80.178 217.705 80.5909C217.932 81.0038 218.045 81.5568 218.045 82.25V88H216.705V86.8182H216.636C216.545 87.0076 216.394 87.2102 216.182 87.4261C215.97 87.642 215.688 87.8258 215.335 87.9773C214.983 88.1288 214.553 88.2045 214.045 88.2045ZM214.25 87C214.78 87 215.227 86.8958 215.591 86.6875C215.958 86.4792 216.235 86.2102 216.42 85.8807C216.61 85.5511 216.705 85.2045 216.705 84.8409V83.6136C216.648 83.6818 216.523 83.7443 216.33 83.8011C216.14 83.8542 215.92 83.9015 215.67 83.9432C215.424 83.9811 215.184 84.0152 214.949 84.0455C214.718 84.072 214.53 84.0947 214.386 84.1136C214.038 84.1591 213.712 84.233 213.409 84.3352C213.11 84.4337 212.867 84.5833 212.682 84.7841C212.5 84.9811 212.409 85.25 212.409 85.5909C212.409 86.0568 212.581 86.4091 212.926 86.6477C213.275 86.8826 213.716 87 214.25 87ZM221.044 91.2727C220.817 91.2727 220.614 91.2538 220.436 91.2159C220.258 91.1818 220.135 91.1477 220.067 91.1136L220.408 89.9318C220.733 90.0152 221.021 90.0455 221.271 90.0227C221.521 90 221.743 89.8883 221.936 89.6875C222.133 89.4905 222.313 89.1705 222.476 88.7273L222.726 88.0455L219.499 79.2727H220.953L223.362 86.2273H223.453L225.862 79.2727H227.317L223.612 89.2727C223.446 89.7235 223.239 90.0966 222.993 90.392C222.747 90.6913 222.461 90.9129 222.135 91.0568C221.813 91.2008 221.449 91.2727 221.044 91.2727ZM229.517 88.0909C229.237 88.0909 228.996 87.9905 228.795 87.7898C228.595 87.589 228.494 87.3485 228.494 87.0682C228.494 86.7879 228.595 86.5473 228.795 86.3466C228.996 86.1458 229.237 86.0455 229.517 86.0455C229.797 86.0455 230.038 86.1458 230.239 86.3466C230.439 86.5473 230.54 86.7879 230.54 87.0682C230.54 87.2538 230.492 87.4242 230.398 87.5795C230.307 87.7348 230.184 87.8598 230.028 87.9545C229.877 88.0455 229.706 88.0909 229.517 88.0909Z" fill="white"/>
</g>
<defs>
<clipPath id="clip0_214_6490">
<rect width="334" height="133" rx="12" fill="white"/>
</clipPath>
</defs>
</svg>
