<svg width="12" height="13" viewBox="0 0 12 13" fill="none" xmlns="http://www.w3.org/2000/svg">
<path d="M8.3501 9.99005H3.6501C3.4401 9.99005 3.2051 9.82505 3.1351 9.62505L1.0651 3.83505C0.7701 3.00505 1.1151 2.75005 1.8251 3.26005L3.7751 4.65505C4.1001 4.88005 4.4701 4.76505 4.6101 4.40005L5.4901 2.05505C5.7701 1.30505 6.2351 1.30505 6.5151 2.05505L7.3951 4.40005C7.5351 4.76505 7.9051 4.88005 8.2251 4.65505L10.0551 3.35005C10.8351 2.79005 11.2101 3.07505 10.8901 3.98005L8.8701 9.63505C8.7951 9.82505 8.5601 9.99005 8.3501 9.99005Z" stroke="white" stroke-width="1.5" stroke-linecap="round" stroke-linejoin="round"/>
<path d="M3.25 11.5H8.75" stroke="white" stroke-width="1.5" stroke-linecap="round" stroke-linejoin="round"/>
<path d="M4.75 7.5H7.25" stroke="white" stroke-width="1.5" stroke-linecap="round" stroke-linejoin="round"/>
</svg>
