<svg width="16" height="17" viewBox="0 0 16 17" fill="none" xmlns="http://www.w3.org/2000/svg">
<path d="M14.5067 11.1133L10.24 3.43325C9.66665 2.39992 8.87332 1.83325 7.99998 1.83325C7.12665 1.83325 6.33332 2.39992 5.75998 3.43325L1.49332 11.1133C0.953318 12.0933 0.893318 13.0333 1.32665 13.7733C1.75999 14.5133 2.61332 14.9199 3.73332 14.9199H12.2667C13.3867 14.9199 14.24 14.5133 14.6733 13.7733C15.1067 13.0333 15.0467 12.0866 14.5067 11.1133ZM7.49998 6.49992C7.49998 6.22659 7.72665 5.99992 7.99998 5.99992C8.27332 5.99992 8.49998 6.22659 8.49998 6.49992V9.83325C8.49998 10.1066 8.27332 10.3333 7.99998 10.3333C7.72665 10.3333 7.49998 10.1066 7.49998 9.83325V6.49992ZM8.47332 12.3066C8.43998 12.3333 8.40665 12.3599 8.37332 12.3866C8.33332 12.4133 8.29332 12.4333 8.25332 12.4466C8.21332 12.4666 8.17332 12.4799 8.12665 12.4866C8.08665 12.4933 8.03998 12.4999 7.99998 12.4999C7.95998 12.4999 7.91332 12.4933 7.86665 12.4866C7.82665 12.4799 7.78665 12.4666 7.74665 12.4466C7.70665 12.4333 7.66665 12.4133 7.62665 12.3866C7.59332 12.3599 7.55998 12.3333 7.52665 12.3066C7.40665 12.1799 7.33332 12.0066 7.33332 11.8333C7.33332 11.6599 7.40665 11.4866 7.52665 11.3599C7.55998 11.3333 7.59332 11.3066 7.62665 11.2799C7.66665 11.2533 7.70665 11.2333 7.74665 11.2199C7.78665 11.1999 7.82665 11.1866 7.86665 11.1799C7.95332 11.1599 8.04665 11.1599 8.12665 11.1799C8.17332 11.1866 8.21332 11.1999 8.25332 11.2199C8.29332 11.2333 8.33332 11.2533 8.37332 11.2799C8.40665 11.3066 8.43998 11.3333 8.47332 11.3599C8.59332 11.4866 8.66665 11.6599 8.66665 11.8333C8.66665 12.0066 8.59332 12.1799 8.47332 12.3066Z" fill="#F0B313"/>
</svg>
