<svg width="12" height="12" viewBox="0 0 12 12" fill="none" xmlns="http://www.w3.org/2000/svg">
<path d="M11.9999 5.9715C12.0056 7.15828 11.6591 8.32007 11.0044 9.30994C10.3497 10.2998 9.41617 11.0733 8.32184 11.5325C7.22751 11.9918 6.02156 12.1162 4.85651 11.89C3.69147 11.6638 2.61968 11.0972 1.77668 10.2619C0.933689 9.42651 0.357368 8.35991 0.120609 7.19697C-0.11615 6.03404 -0.00270958 4.827 0.446582 3.72854C0.895874 2.63008 1.66083 1.68954 2.64471 1.02587C3.62859 0.362195 4.78719 0.00520535 5.97397 5.65449e-05C7.56482 -0.00684531 9.0933 0.618333 10.2233 1.73812C11.3533 2.85792 11.9924 4.38064 11.9999 5.9715Z" fill="#8DC63F"/>
<path d="M11.5496 5.97285C11.5544 7.07012 11.2338 8.14419 10.6283 9.05926C10.0228 9.97433 9.15949 10.6893 8.14763 11.1138C7.13578 11.5382 6.02078 11.6531 4.94363 11.4439C3.86647 11.2348 2.87553 10.7109 2.09611 9.93852C1.31668 9.16617 0.783775 8.18005 0.564765 7.10485C0.345755 6.02965 0.45048 4.91366 0.865696 3.89797C1.28091 2.88229 1.98798 2.01252 2.89748 1.39866C3.80699 0.784807 4.87809 0.454419 5.97536 0.449274C7.44697 0.442717 8.86093 1.02094 9.90626 2.05678C10.9516 3.09262 11.5427 4.50124 11.5496 5.97285Z" fill="#F9E988"/>
<path d="M6.10254 0.804831C6.45547 0.74214 6.81668 0.74214 7.16961 0.804831C7.5259 0.861209 7.8703 0.976595 8.18865 1.14624C8.4944 1.33013 8.78289 1.54128 9.05061 1.77714C9.32322 1.99782 9.59323 2.225 9.85156 2.47294C10.1146 2.71677 10.3443 2.99439 10.5344 3.29856C10.73 3.60029 10.8902 3.92348 11.0121 4.26178C11.2514 4.94319 11.3187 5.67314 11.2081 6.38683H11.1744C11.0716 5.70921 10.8975 5.04434 10.6551 4.40327C10.5387 4.08657 10.4016 3.77782 10.2449 3.479C10.0813 3.18048 9.90098 2.8914 9.70487 2.61314C9.5056 2.33148 9.26131 2.08456 8.98181 1.88228C8.69508 1.694 8.38643 1.54142 8.06273 1.42794C7.74987 1.29812 7.43832 1.1761 7.11119 1.08263C6.78406 0.989168 6.45174 0.91777 6.10513 0.850266L6.10254 0.804831Z" fill="white"/>
<path d="M8.81038 4.01506C8.40795 3.89823 7.98995 3.73337 7.56806 3.56591C7.50831 3.40457 7.40104 3.26516 7.2604 3.16608C6.98389 2.92592 6.46594 2.93241 6.01808 3.03627C5.54409 2.90719 5.04623 2.8925 4.56546 2.99343C0.72816 4.05011 2.90384 6.62822 1.49536 9.22449C1.69527 9.65028 3.85668 12.131 6.9826 11.4651C6.9826 11.4651 5.91293 8.89607 8.32617 7.66284C10.2851 6.65678 11.6987 4.80044 8.81038 4.01506Z" fill="#8BC53F"/>
<path d="M9.28797 5.70129C9.28823 5.74724 9.27485 5.79224 9.24953 5.8306C9.22421 5.86895 9.18809 5.89894 9.14573 5.91676C9.10337 5.93459 9.05667 5.93945 9.01155 5.93073C8.96643 5.92202 8.9249 5.90012 8.89222 5.86781C8.85954 5.83549 8.83718 5.79421 8.82796 5.74919C8.81875 5.70416 8.82309 5.65742 8.84044 5.61486C8.85778 5.5723 8.88736 5.53585 8.92543 5.5101C8.9635 5.48435 9.00835 5.47048 9.05431 5.47022C9.08482 5.47005 9.11507 5.47589 9.14333 5.48741C9.17159 5.49893 9.1973 5.5159 9.21899 5.53736C9.24069 5.55882 9.25795 5.58434 9.26979 5.61246C9.28162 5.64059 9.2878 5.67077 9.28797 5.70129Z" fill="white"/>
<path d="M6.02075 3.03754C6.29985 3.05701 7.3111 3.38544 7.57203 3.56459C7.35524 2.93369 6.62309 2.85061 6.02075 3.03754Z" fill="#009345"/>
<path d="M6.28677 4.63184C6.28703 4.84422 6.22428 5.05191 6.10647 5.22863C5.98866 5.40534 5.82109 5.54315 5.62494 5.6246C5.4288 5.70606 5.2129 5.7275 5.00456 5.68622C4.79623 5.64495 4.60482 5.5428 4.45455 5.39271C4.30428 5.24262 4.2019 5.05134 4.16037 4.84305C4.11884 4.63477 4.14003 4.41884 4.22124 4.2226C4.30246 4.02635 4.44006 3.85861 4.61663 3.74059C4.79321 3.62257 5.00082 3.55957 5.21321 3.55957C5.35413 3.5594 5.4937 3.58701 5.62394 3.64082C5.75419 3.69463 5.87255 3.77359 5.97225 3.87317C6.07196 3.97276 6.15106 4.09102 6.20503 4.2212C6.25899 4.35137 6.28677 4.49091 6.28677 4.63184Z" fill="white"/>
<path d="M5.96889 4.64094C5.96889 4.79011 5.92465 4.93593 5.84178 5.05996C5.7589 5.18399 5.64111 5.28066 5.5033 5.33775C5.36548 5.39483 5.21383 5.40977 5.06753 5.38066C4.92123 5.35156 4.78684 5.27973 4.68136 5.17425C4.57588 5.06877 4.50404 4.93438 4.47494 4.78808C4.44584 4.64178 4.46078 4.49013 4.51786 4.35231C4.57495 4.2145 4.67162 4.0967 4.79565 4.01383C4.91968 3.93095 5.0655 3.88672 5.21467 3.88672C5.4147 3.88672 5.60654 3.96618 5.74798 4.10763C5.88943 4.24907 5.96889 4.44091 5.96889 4.64094Z" fill="#58595B"/>
<path d="M10.1578 6.17533C9.28808 6.78805 8.3002 7.25278 6.89691 7.25278C6.24005 7.25278 6.10764 6.55698 5.67406 6.89709C5.45078 7.07364 4.66021 7.46827 4.03451 7.43841C3.40881 7.40856 2.39237 7.04119 2.10937 5.7041C1.99773 7.04119 1.93931 8.02648 1.43823 9.15586C2.4378 10.7565 4.82248 11.9923 6.98648 11.4601C6.75411 9.83608 8.17298 8.24586 8.97263 7.43582C9.2764 7.12816 9.85537 6.62449 10.1591 6.17922L10.1578 6.17533Z" fill="#8BC53F"/>
<path d="M10.1229 6.21433C9.84617 6.45286 9.53721 6.65127 9.20515 6.80369C8.8741 6.9608 8.52901 7.0864 8.17443 7.17885C7.8181 7.28496 7.44615 7.32887 7.07491 7.30866C6.69573 7.29327 6.33637 7.13515 6.06885 6.866L6.08053 6.85302C6.3835 7.03618 6.73126 7.13188 7.08529 7.12952C7.43967 7.1403 7.79413 7.11113 8.14198 7.04254C8.49338 6.96923 8.83716 6.86318 9.1688 6.7258C9.50588 6.59804 9.82317 6.42322 10.1113 6.20654L10.1229 6.21433Z" fill="#58595B"/>
</svg>
