<svg width="32" height="32" viewBox="0 0 32 32" fill="none" xmlns="http://www.w3.org/2000/svg">
<rect width="32" height="32" rx="16" fill="white" fill-opacity="0.05"/>
<path d="M24.0241 10.52C22.5562 9.34566 20.7948 8.7585 18.9355 8.66064L18.6419 8.95422C20.3055 9.34566 21.7734 10.1285 23.1434 11.205C21.4798 10.3243 19.6205 9.7371 17.6633 9.54138C17.0761 9.44352 16.5868 9.44352 15.9997 9.44352C15.4125 9.44352 14.9232 9.44352 14.3361 9.54138C12.3789 9.7371 10.5196 10.3243 8.85594 11.205C10.226 10.1285 11.6939 9.34566 13.3575 8.95422L13.0639 8.66064C11.2046 8.7585 9.4431 9.34566 7.97521 10.52C6.3116 13.6515 5.43087 17.1744 5.33301 20.7952C6.8009 22.3609 8.85594 23.3395 11.0088 23.3395C11.0088 23.3395 11.6939 22.5567 12.1832 21.8717C10.911 21.5781 9.73668 20.8931 8.9538 19.8166C9.63882 20.208 10.3238 20.5995 11.0088 20.8931C11.8896 21.2845 12.7703 21.4802 13.6511 21.6759C14.4339 21.7738 15.2168 21.8717 15.9997 21.8717C16.7825 21.8717 17.5654 21.7738 18.3483 21.6759C19.229 21.4802 20.1098 21.2845 20.9905 20.8931C21.6755 20.5995 22.3605 20.208 23.0455 19.8166C22.2627 20.8931 21.0884 21.5781 19.8162 21.8717C20.3055 22.5567 20.9905 23.3395 20.9905 23.3395C23.1434 23.3395 25.1985 22.3609 26.6663 20.7952C26.5685 17.1744 25.6877 13.6515 24.0241 10.52ZM12.7703 19.0337C11.7917 19.0337 10.911 18.153 10.911 17.0765C10.911 16.0001 11.7917 15.1194 12.7703 15.1194C13.7489 15.1194 14.6296 16.0001 14.6296 17.0765C14.6296 18.153 13.7489 19.0337 12.7703 19.0337ZM19.229 19.0337C18.2504 19.0337 17.3697 18.153 17.3697 17.0765C17.3697 16.0001 18.2504 15.1194 19.229 15.1194C20.2076 15.1194 21.0884 16.0001 21.0884 17.0765C21.0884 18.153 20.2076 19.0337 19.229 19.0337Z" fill="white"/>
</svg>
