<svg width="16" height="12" viewBox="0 0 16 12" fill="none" xmlns="http://www.w3.org/2000/svg">
<path d="M14.0183 1.88986C12.9174 1.00912 11.5963 0.568756 10.2018 0.495361L9.98165 0.715545C11.2294 1.00912 12.3303 1.59628 13.3578 2.40362C12.1101 1.74307 10.7156 1.3027 9.24771 1.15591C8.80734 1.08252 8.44037 1.08252 8 1.08252C7.55963 1.08252 7.19266 1.08252 6.75229 1.15591C5.2844 1.3027 3.88991 1.74307 2.6422 2.40362C3.66972 1.59628 4.77064 1.00912 6.01835 0.715545L5.79817 0.495361C4.40367 0.568756 3.08257 1.00912 1.98165 1.88986C0.733945 4.23848 0.0733945 6.88068 0 9.59628C1.10092 10.7706 2.6422 11.5045 4.25688 11.5045C4.25688 11.5045 4.77064 10.9174 5.13761 10.4036C4.18349 10.1834 3.30275 9.66967 2.7156 8.86233C3.22936 9.15591 3.74312 9.44949 4.25688 9.66967C4.91743 9.96325 5.57798 10.11 6.23853 10.2568C6.82569 10.3302 7.41284 10.4036 8 10.4036C8.58716 10.4036 9.17431 10.3302 9.76147 10.2568C10.422 10.11 11.0826 9.96325 11.7431 9.66967C12.2569 9.44949 12.7706 9.15591 13.2844 8.86233C12.6972 9.66967 11.8165 10.1834 10.8624 10.4036C11.2294 10.9174 11.7431 11.5045 11.7431 11.5045C13.3578 11.5045 14.8991 10.7706 16 9.59628C15.9266 6.88068 15.2661 4.23848 14.0183 1.88986ZM5.57798 8.27518C4.84404 8.27518 4.18349 7.61463 4.18349 6.80729C4.18349 5.99995 4.84404 5.3394 5.57798 5.3394C6.31193 5.3394 6.97248 5.99995 6.97248 6.80729C6.97248 7.61463 6.31193 8.27518 5.57798 8.27518ZM10.422 8.27518C9.68807 8.27518 9.02752 7.61463 9.02752 6.80729C9.02752 5.99995 9.68807 5.3394 10.422 5.3394C11.156 5.3394 11.8165 5.99995 11.8165 6.80729C11.8165 7.61463 11.156 8.27518 10.422 8.27518Z" fill="white"/>
</svg>
