<svg width="24" height="24" viewBox="0 0 24 24" fill="none" xmlns="http://www.w3.org/2000/svg">
<rect width="24" height="24" rx="12" fill="#7289DA"/>
<path d="M18.0183 7.88986C16.9174 7.00912 15.5963 6.56876 14.2018 6.49536L13.9817 6.71554C15.2294 7.00912 16.3303 7.59628 17.3578 8.40362C16.1101 7.74307 14.7156 7.3027 13.2477 7.15591C12.8073 7.08252 12.4404 7.08252 12 7.08252C11.5596 7.08252 11.1927 7.08252 10.7523 7.15591C9.2844 7.3027 7.88991 7.74307 6.6422 8.40362C7.66972 7.59628 8.77064 7.00912 10.0183 6.71554L9.79817 6.49536C8.40367 6.56876 7.08257 7.00912 5.98165 7.88986C4.73394 10.2385 4.07339 12.8807 4 15.5963C5.10092 16.7706 6.6422 17.5045 8.25688 17.5045C8.25688 17.5045 8.77064 16.9174 9.13761 16.4036C8.18349 16.1834 7.30275 15.6697 6.7156 14.8623C7.22936 15.1559 7.74312 15.4495 8.25688 15.6697C8.91743 15.9633 9.57798 16.11 10.2385 16.2568C10.8257 16.3302 11.4128 16.4036 12 16.4036C12.5872 16.4036 13.1743 16.3302 13.7615 16.2568C14.422 16.11 15.0826 15.9633 15.7431 15.6697C16.2569 15.4495 16.7706 15.1559 17.2844 14.8623C16.6972 15.6697 15.8165 16.1834 14.8624 16.4036C15.2294 16.9174 15.7431 17.5045 15.7431 17.5045C17.3578 17.5045 18.8991 16.7706 20 15.5963C19.9266 12.8807 19.2661 10.2385 18.0183 7.88986ZM9.57798 14.2752C8.84404 14.2752 8.18349 13.6146 8.18349 12.8073C8.18349 11.9999 8.84404 11.3394 9.57798 11.3394C10.3119 11.3394 10.9725 11.9999 10.9725 12.8073C10.9725 13.6146 10.3119 14.2752 9.57798 14.2752ZM14.422 14.2752C13.6881 14.2752 13.0275 13.6146 13.0275 12.8073C13.0275 11.9999 13.6881 11.3394 14.422 11.3394C15.156 11.3394 15.8165 11.9999 15.8165 12.8073C15.8165 13.6146 15.156 14.2752 14.422 14.2752Z" fill="white"/>
</svg>
