<svg width="12" height="13" viewBox="0 0 12 13" fill="none" xmlns="http://www.w3.org/2000/svg">
<g clip-path="url(#clip0_214_6699)">
<path d="M9.11833 3.46015C8.49834 2.40971 7.61817 1.53673 6.56268 0.925382L6.3749 0.816772L6.18712 0.925382C5.11367 1.54489 4.22232 2.43618 3.60274 3.50959C2.98317 4.583 2.65723 5.80065 2.65772 7.04004C2.65772 7.12078 2.65912 7.20279 2.66186 7.28379C2.69918 8.38198 3.11915 9.30605 3.8764 9.95609C4.45586 10.4535 5.19916 10.7572 6 10.8297V12.125H6.75V6.12499H5.9999V10.0749C4.73278 9.92808 3.47163 9.03295 3.41137 7.25829C3.40889 7.18575 3.40762 7.11232 3.40762 7.04004C3.40985 5.96987 3.68316 4.91771 4.20205 3.98175C4.72093 3.04579 5.46847 2.25653 6.3749 1.68764C7.28132 2.25654 8.02884 3.0458 8.54771 3.98176C9.06657 4.91773 9.33987 5.96988 9.34209 7.04004C9.34209 7.11232 9.34083 7.18575 9.33834 7.25831C9.29015 8.67799 8.47333 9.53473 7.49981 9.89587V10.6896C8.00499 10.5464 8.47346 10.2963 8.87341 9.95604C9.63065 9.306 10.0506 8.38193 10.0879 7.28376C10.0907 7.20276 10.0921 7.12076 10.0921 7.04001C10.0928 5.78121 9.75655 4.54517 9.11833 3.46015Z" fill="white"/>
</g>
<defs>
<clipPath id="clip0_214_6699">
<rect width="12" height="12" fill="white" transform="translate(0 0.5)"/>
</clipPath>
</defs>
</svg>
