<svg width="15" height="15" viewBox="0 0 15 15" fill="none" xmlns="http://www.w3.org/2000/svg">
<g clip-path="url(#clip0_214_6272)">
<path d="M12.1178 4.44643C12.1178 3.375 12.1178 2.30357 12.0428 1.59643C12.0434 1.42312 12.0019 1.25226 11.9219 1.09851C11.842 0.944757 11.7259 0.812701 11.5837 0.713668C11.4414 0.614635 11.2773 0.551583 11.1054 0.529919C10.9334 0.508255 10.7588 0.528626 10.5964 0.589285C8.28213 1.25357 3.55713 2.91429 1.57499 5.76429C-0.56787 8.78571 1.08213 12.2464 1.86427 13.5964C1.97823 13.7872 2.13374 13.9499 2.31924 14.0723C2.50474 14.1948 2.71545 14.2738 2.9357 14.3036C3.92225 14.4814 4.92988 14.5103 5.92499 14.3893" stroke="#0F49FF" stroke-linecap="round" stroke-linejoin="round"/>
<path d="M5.35723 9.19286C4.27864 10.7823 3.28441 12.4275 2.37866 14.1214" stroke="#0F49FF" stroke-linecap="round" stroke-linejoin="round"/>
<path d="M11.4321 14.4321C11.3144 14.4747 11.1855 14.4747 11.0678 14.4321C10.1742 14.0782 9.40753 13.4641 8.86693 12.6694C8.32633 11.8748 8.03673 10.9361 8.03564 9.975V7.99286C8.03695 7.92484 8.05203 7.8578 8.07996 7.79577C8.1079 7.73374 8.14811 7.67801 8.19818 7.63195C8.24824 7.58589 8.30712 7.55045 8.37126 7.52777C8.4354 7.50509 8.50347 7.49565 8.57136 7.5H13.9285C14.0584 7.50274 14.1821 7.55554 14.274 7.64738C14.3658 7.73923 14.4186 7.863 14.4214 7.99286V9.975C14.4237 10.9312 14.1404 11.8663 13.6078 12.6604C13.0752 13.4545 12.3176 14.0714 11.4321 14.4321Z" stroke="#0F49FF" stroke-linecap="round" stroke-linejoin="round"/>
</g>
<defs>
<clipPath id="clip0_214_6272">
<rect width="15" height="15" fill="white"/>
</clipPath>
</defs>
</svg>
