<svg width="8" height="13" viewBox="0 0 8 13" fill="none" xmlns="http://www.w3.org/2000/svg">
<path fill-rule="evenodd" clip-rule="evenodd" d="M3.60574 4.75956C3.61439 4.75562 3.62172 4.74927 3.62685 4.74126C3.63198 4.73326 3.63468 4.72394 3.63464 4.71444V0.549811C3.63464 0.499048 3.56767 0.480718 3.54228 0.525135L0.299137 6.15834C0.293765 6.16742 0.291446 6.17799 0.292519 6.18848C0.293591 6.19898 0.298 6.20886 0.305097 6.21666C0.312195 6.22447 0.321608 6.2298 0.331955 6.23186C0.342302 6.23393 0.353039 6.23262 0.36259 6.22814L3.60574 4.75956ZM3.63464 8.88823C3.6348 8.89717 3.63252 8.90599 3.62805 8.91374C3.62358 8.92149 3.61709 8.92788 3.60927 8.93223C3.60145 8.93657 3.59259 8.93871 3.58365 8.93841C3.57471 8.93811 3.56601 8.93539 3.5585 8.93053L0.299842 6.89087C0.292078 6.88626 0.285729 6.8796 0.281486 6.87163C0.277243 6.86366 0.275268 6.85468 0.275777 6.84566C0.276286 6.83664 0.279259 6.82794 0.284373 6.8205C0.289486 6.81305 0.296544 6.80716 0.304777 6.80345L3.56414 5.27846C3.5717 5.27487 3.58005 5.27327 3.58841 5.2738C3.59676 5.27432 3.60485 5.27697 3.6119 5.28148C3.61895 5.28599 3.62474 5.29223 3.62871 5.29959C3.63269 5.30696 3.63473 5.31521 3.63464 5.32358V8.88823ZM3.60644 12.4472C3.60644 12.4966 3.54299 12.5156 3.51479 12.4754L0.158836 7.4979C0.128519 7.45208 0.181397 7.39849 0.227224 7.4274L3.58318 9.59326C3.59025 9.59766 3.59609 9.60379 3.60016 9.61106C3.60423 9.61834 3.60639 9.62652 3.60644 9.63486V12.4472ZM3.88422 4.75956C3.87557 4.75562 3.86824 4.74927 3.86311 4.74126C3.85799 4.73326 3.85528 4.72394 3.85532 4.71444V0.549811C3.85532 0.499048 3.9223 0.480718 3.94838 0.525135L7.19082 6.15834C7.1962 6.16742 7.19852 6.17799 7.19744 6.18848C7.19637 6.19898 7.19196 6.20886 7.18486 6.21666C7.17777 6.22447 7.16835 6.2298 7.15801 6.23186C7.14766 6.23393 7.13692 6.23262 7.12737 6.22814L3.88422 4.75956ZM3.85532 8.88823C3.85532 8.927 3.89762 8.95097 3.93146 8.93053L7.19012 6.89087C7.19788 6.88626 7.20423 6.8796 7.20848 6.87163C7.21272 6.86366 7.21469 6.85468 7.21418 6.84566C7.21368 6.83664 7.2107 6.82794 7.20559 6.8205C7.20048 6.81305 7.19342 6.80716 7.18518 6.80345L3.92582 5.27846C3.91826 5.27487 3.90991 5.27327 3.90155 5.2738C3.8932 5.27432 3.88511 5.27697 3.87806 5.28148C3.87101 5.28599 3.86523 5.29223 3.86125 5.29959C3.85727 5.30696 3.85523 5.31521 3.85532 5.32358V8.88823ZM3.85532 12.45C3.85532 12.4994 3.91877 12.5184 3.94627 12.4782L7.35157 7.4979C7.38189 7.45278 7.32901 7.39849 7.28318 7.4274L3.87788 9.59396C3.87083 9.59852 3.86506 9.60479 3.86112 9.61219C3.85717 9.61959 3.85517 9.62788 3.85532 9.63626V12.45Z" fill="white"/>
</svg>
