<svg width="12" height="13" viewBox="0 0 12 13" fill="none" xmlns="http://www.w3.org/2000/svg">
<g clip-path="url(#clip0_214_6688)">
<path d="M6.99008 12.2397C6.92042 12.1496 6.87745 12.0417 6.86605 11.9283C6.85465 11.815 6.87527 11.7007 6.92558 11.5985C7.05758 11.342 7.10933 11.0487 7.07558 10.76C7.04792 10.554 6.97987 10.3554 6.87533 10.1757C6.77213 9.99841 6.63411 9.8438 6.46958 9.72123C5.90883 9.2998 5.51535 8.6935 5.35883 8.00973C4.07783 9.68898 4.56908 10.6422 5.18258 11.4822C5.25451 11.5807 5.2924 11.6999 5.2905 11.8219C5.28861 11.9438 5.24703 12.0618 5.17208 12.158C5.09569 12.2553 4.99321 12.3289 4.87658 12.3702C4.76129 12.4107 4.63671 12.4167 4.51808 12.3875C3.68933 12.185 2.90933 11.7995 2.38058 11.1852C2.08085 10.844 1.8501 10.448 1.70108 10.019C1.55036 9.58633 1.48342 9.12893 1.50383 8.67123C1.50383 8.67123 1.40408 6.82398 3.63158 5.01423C3.63158 5.01423 6.26408 2.78073 5.35058 1.12923C5.31692 1.048 5.30694 0.958889 5.32181 0.87222C5.33667 0.785551 5.37577 0.704861 5.43458 0.639483C5.49174 0.575383 5.56723 0.53042 5.65082 0.510697C5.73441 0.490974 5.82204 0.497445 5.90183 0.529233L6.01133 0.572733C7.00288 1.19951 7.77787 2.11588 8.23133 3.19773C8.66633 4.25748 8.66333 5.49273 8.36933 6.59298C8.61308 6.37398 8.81633 6.11223 8.97008 5.81823L8.99183 5.77023C9.14033 5.41248 9.60758 5.52648 9.78308 5.76048C9.84758 5.86323 11.5021 8.26773 10.6133 10.2965C10.2884 10.9111 9.81377 11.434 9.23333 11.8167C8.74629 12.1399 8.20206 12.3672 7.62983 12.4865C7.51155 12.5114 7.3886 12.5015 7.27583 12.458C7.16205 12.4137 7.06302 12.3384 6.99008 12.2405V12.2397ZM5.66558 6.41898C5.7356 6.38249 5.81674 6.37349 5.89306 6.39375C5.96938 6.41401 6.03537 6.46206 6.07808 6.52848C6.10808 6.57273 6.12758 6.62298 6.13433 6.67698L6.16808 6.93873C6.18308 7.32198 6.17858 7.72248 6.32783 8.09073C6.48233 8.46873 6.72233 8.80323 7.02683 9.06423C7.41911 9.32235 7.72277 9.6946 7.89683 10.1307C8.06183 10.5537 8.08433 11.0232 7.95983 11.4605C8.34073 11.3403 8.69475 11.1475 9.00233 10.8927L9.07958 10.8297C9.33158 10.622 9.53933 10.3625 9.68933 10.067C9.84008 9.77223 9.93083 9.44823 9.95483 9.11523C10.0036 8.34648 9.74183 7.57473 9.33458 6.88623C9.14858 7.15623 8.89208 7.36548 8.59583 7.48923C8.41058 7.56798 8.21408 7.61673 8.01383 7.63173C7.89913 7.63911 7.78476 7.61306 7.68458 7.55673C7.58285 7.49893 7.49943 7.41368 7.44383 7.31073C7.39781 7.22772 7.37151 7.13523 7.36695 7.04042C7.3624 6.94561 7.37972 6.85103 7.41758 6.76398C7.72658 6.03498 7.82258 5.22648 7.69133 4.44123C7.53596 3.54283 7.10568 2.71477 6.45983 2.07123C6.34283 3.72498 4.64708 5.26473 4.29908 5.59623C4.24513 5.64706 4.18908 5.6956 4.13108 5.74173C2.31158 7.21548 2.43608 8.55798 2.43608 8.61723C2.39994 9.15055 2.51954 9.68288 2.78033 10.1495C3.05408 10.6332 3.44783 11.0322 3.92033 11.3045C3.37508 10.106 3.37508 8.66748 5.38733 6.60498L5.66633 6.41748L5.66558 6.41898Z" fill="white"/>
</g>
<defs>
<clipPath id="clip0_214_6688">
<rect width="12" height="12" fill="white" transform="translate(0 0.5)"/>
</clipPath>
</defs>
</svg>
