<svg width="15" height="15" viewBox="0 0 15 15" fill="none" xmlns="http://www.w3.org/2000/svg">
<path d="M6.58939 0.567857C6.52461 0.529161 6.45056 0.508728 6.3751 0.508728C6.29965 0.508728 6.2256 0.529161 6.16082 0.567857C6.10738 0.610193 6.07133 0.670653 6.05948 0.737789C6.04763 0.804924 6.06082 0.874074 6.09653 0.932142C7.41439 3.21429 7.69296 6.32143 5.89296 8.03571C5.20042 7.45374 4.6506 6.72065 4.28582 5.89286C3.62017 6.26255 3.06852 6.80753 2.69075 7.46863C2.31298 8.12973 2.12352 8.88168 2.14296 9.64286C2.17013 10.3139 2.33125 10.9727 2.61682 11.5805C2.9024 12.1883 3.30667 12.7329 3.80584 13.1821C4.305 13.6314 4.88899 13.9762 5.52343 14.1964C6.15787 14.4166 6.82994 14.5077 7.5001 14.4643C10.9501 14.4643 12.7394 12.3214 12.8572 9.64286C12.9965 6.42857 10.7144 2.475 6.58939 0.567857Z" stroke="#0F49FF" stroke-linecap="round" stroke-linejoin="round"/>
<path d="M10.1787 9.64288C10.1787 10.2112 9.95298 10.7562 9.55112 11.1581C9.14925 11.56 8.60421 11.7857 8.03589 11.7857" stroke="#0F49FF" stroke-linecap="round" stroke-linejoin="round"/>
</svg>
