<svg width="15" height="15" viewBox="0 0 15 15" fill="none" xmlns="http://www.w3.org/2000/svg">
<path d="M11.4001 1.64999H3.60011C3.42028 1.65493 3.24414 1.70212 3.08593 1.78774C2.92772 1.87336 2.79188 1.99501 2.68939 2.14285L0.739394 4.84285C0.594597 5.04747 0.522284 5.29458 0.53393 5.54497C0.545577 5.79537 0.640515 6.0347 0.803679 6.22499L6.65368 12.9643C6.75383 13.0933 6.88216 13.1978 7.02887 13.2696C7.17557 13.3415 7.33676 13.3788 7.50011 13.3788C7.66346 13.3788 7.82465 13.3415 7.97135 13.2696C8.11805 13.1978 8.24638 13.0933 8.34654 12.9643L14.1965 6.22499C14.3597 6.0347 14.4546 5.79537 14.4663 5.54497C14.4779 5.29458 14.4056 5.04747 14.2608 4.84285L12.3108 2.14285C12.2083 1.99501 12.0725 1.87336 11.9143 1.78774C11.7561 1.70212 11.5799 1.65493 11.4001 1.64999V1.64999Z" stroke="#0F49FF" stroke-linecap="round" stroke-linejoin="round"/>
<path d="M6.9429 1.63928L4.32861 5.68928L7.50004 13.35" stroke="#0F49FF" stroke-linecap="round" stroke-linejoin="round"/>
<path d="M8.08929 1.63928L10.6929 5.68928L7.5 13.35" stroke="#0F49FF" stroke-linecap="round" stroke-linejoin="round"/>
<path d="M0.557129 5.68929H14.4428" stroke="#0F49FF" stroke-linecap="round" stroke-linejoin="round"/>
</svg>
