<svg width="32" height="32" viewBox="0 0 32 32" fill="none" xmlns="http://www.w3.org/2000/svg">
<rect width="32" height="32" rx="16" fill="white" fill-opacity="0.05"/>
<path d="M25.6663 23.7714L24.2201 22.3238C24.0679 22.2476 23.9918 22.019 23.9918 21.8667V10.2857C23.9918 10.1333 24.0679 9.90476 24.2201 9.75238L25.6663 8.07619V8H20.4905L16.6086 17.8286L12.1939 8H6.86582V8.07619L8.23589 9.98095C8.54036 10.2857 8.61647 10.7429 8.61647 11.1238V19.5048C8.69259 19.9619 8.61647 20.4952 8.38813 20.9524L6.33301 23.7714V23.8476H11.8133V23.7714L9.7582 21.0286C9.52986 20.5714 9.45374 20.1143 9.52986 19.581V11.9619C9.60597 12.1143 9.68209 12.1143 9.7582 12.419L14.9341 24H15.0102L20.0338 11.4286C19.9577 11.8857 19.9577 12.419 19.9577 12.8V21.7905C19.9577 22.019 19.8816 22.1714 19.7293 22.3238L18.207 23.7714V23.8476H25.6663V23.7714Z" fill="white"/>
</svg>
