<svg width="12" height="12" viewBox="0 0 12 12" fill="none" xmlns="http://www.w3.org/2000/svg">
<path d="M11 3.125V5.67499C11 6.30999 10.79 6.845 10.415 7.215C10.045 7.59 9.51 7.79999 8.875 7.79999V8.70499C8.875 9.04499 8.495 9.25 8.215 9.06L7.73 8.73999C7.775 8.58499 7.795 8.41499 7.795 8.23499V6.20001C7.795 5.18001 7.115 4.5 6.095 4.5H2.7C2.63 4.5 2.565 4.50501 2.5 4.51001V3.125C2.5 1.85 3.35 1 4.625 1H8.875C10.15 1 11 1.85 11 3.125Z" stroke="white" stroke-miterlimit="10" stroke-linecap="round" stroke-linejoin="round"/>
<path d="M7.795 6.20001V8.23499C7.795 8.41499 7.775 8.58499 7.73 8.73999C7.545 9.47499 6.935 9.935 6.095 9.935H4.735L3.225 10.94C3 11.095 2.7 10.93 2.7 10.66V9.935C2.19 9.935 1.765 9.765 1.47 9.47C1.17 9.17 1 8.74499 1 8.23499V6.20001C1 5.25001 1.59 4.59501 2.5 4.51001C2.565 4.50501 2.63 4.5 2.7 4.5H6.095C7.115 4.5 7.795 5.18001 7.795 6.20001Z" stroke="white" stroke-miterlimit="10" stroke-linecap="round" stroke-linejoin="round"/>
</svg>
