<svg width="15" height="15" viewBox="0 0 15 15" fill="none" xmlns="http://www.w3.org/2000/svg">
<path d="M11.7857 0.535706H3.21425C2.62252 0.535706 2.14282 1.0154 2.14282 1.60713V13.3928C2.14282 13.9846 2.62252 14.4643 3.21425 14.4643H11.7857C12.3774 14.4643 12.8571 13.9846 12.8571 13.3928V1.60713C12.8571 1.0154 12.3774 0.535706 11.7857 0.535706Z" stroke="#0F49FF" stroke-linecap="round" stroke-linejoin="round"/>
<path d="M10.1784 3.21429H4.82129V8.57144H10.1784V3.21429Z" stroke="#0F49FF" stroke-linecap="round" stroke-linejoin="round"/>
<path d="M7.50007 12.0535C7.79594 12.0535 8.03578 11.8137 8.03578 11.5178C8.03578 11.222 7.79594 10.9821 7.50007 10.9821C7.2042 10.9821 6.96436 11.222 6.96436 11.5178C6.96436 11.8137 7.2042 12.0535 7.50007 12.0535Z" stroke="#0F49FF" stroke-linecap="round" stroke-linejoin="round"/>
</svg>
