<svg width="17" height="15" viewBox="0 0 17 15" fill="none" xmlns="http://www.w3.org/2000/svg">
<path fill-rule="evenodd" clip-rule="evenodd" d="M15.688 7.05834C15.882 7.33513 15.9918 7.66212 16.0041 7.9999C16.0092 8.33054 15.9207 8.65588 15.7486 8.93831C15.5766 9.22074 15.3282 9.44872 15.0321 9.5959C15.0456 9.77164 15.0456 9.94816 15.0321 10.1239C15.0321 12.8119 11.9001 14.9959 8.0361 14.9959C4.1721 14.9959 1.0401 12.8119 1.0401 10.1239C1.02659 9.94816 1.02659 9.77164 1.0401 9.5959C0.809292 9.48986 0.604302 9.3349 0.439334 9.14176C0.274367 8.94862 0.153368 8.72192 0.0847235 8.47737C0.016079 8.23281 0.0014301 7.97626 0.0417922 7.72548C0.0821543 7.47471 0.176562 7.23571 0.318473 7.02505C0.460384 6.81438 0.646403 6.6371 0.863642 6.50547C1.08088 6.37385 1.32414 6.29103 1.57657 6.26277C1.82899 6.2345 2.08454 6.26146 2.32551 6.34177C2.56649 6.42209 2.78711 6.55384 2.9721 6.7279C4.35483 5.79013 5.98156 5.27708 7.6521 5.2519L8.5401 1.0879C8.55007 1.03969 8.56951 0.993948 8.5973 0.953311C8.62508 0.912674 8.66065 0.877955 8.70195 0.851166C8.74325 0.824378 8.78945 0.806052 8.83789 0.797252C8.88632 0.788452 8.93602 0.789352 8.9841 0.799901L11.9241 1.3879C12.0677 1.14123 12.2945 0.953802 12.5638 0.859274C12.8331 0.764745 13.1273 0.769301 13.3935 0.872124C13.6598 0.974947 13.8807 1.1693 14.0165 1.42031C14.1524 1.67131 14.1944 1.96252 14.1349 2.24167C14.0754 2.52082 13.9183 2.76962 13.6919 2.94342C13.4655 3.11722 13.1846 3.20463 12.8996 3.18996C12.6145 3.1753 12.344 3.05952 12.1367 2.8634C11.9293 2.66729 11.7986 2.40368 11.7681 2.1199L9.2001 1.5799L8.4201 5.3239C10.0703 5.3593 11.675 5.87196 13.0401 6.7999C13.284 6.56585 13.5903 6.40734 13.9222 6.34347C14.2541 6.2796 14.5974 6.31311 14.9107 6.43995C15.224 6.5668 15.494 6.78156 15.688 7.05834ZM10.7657 10.3983C11.428 10.3983 11.9649 9.86144 11.9649 9.19913C11.9649 8.53682 11.428 7.99991 10.7657 7.99991C10.1034 7.99991 9.56651 8.53682 9.56651 9.19913C9.56651 9.86144 10.1034 10.3983 10.7657 10.3983ZM6.40635 9.19913C6.40635 9.86144 5.86944 10.3983 5.20713 10.3983C4.54482 10.3983 4.00791 9.86144 4.00791 9.19913C4.00791 8.53682 4.54482 7.99991 5.20713 7.99991C5.86944 7.99991 6.40635 8.53682 6.40635 9.19913ZM8.01192 12.7855L8.00601 12.7856L8.0001 12.7855V12.7856C7.14479 12.7908 6.51234 12.5992 6.0984 12.4114C5.88987 12.3169 5.73598 12.2229 5.63657 12.1547C5.58687 12.1207 5.55084 12.0931 5.52847 12.0751C5.51729 12.0662 5.50953 12.0596 5.5052 12.0559L5.50168 12.0528L5.50134 12.0525C5.36914 11.9322 5.16438 11.9412 5.04328 12.073C4.92183 12.2051 4.93051 12.4107 5.06267 12.5322L5.06319 12.5326L5.06379 12.5332L5.06525 12.5345L5.0692 12.5381L5.08121 12.5486C5.09105 12.557 5.10455 12.5684 5.12173 12.5821C5.15607 12.6097 5.20513 12.647 5.26896 12.6908C5.39659 12.7783 5.5835 12.8917 5.82996 13.0034C6.32169 13.2264 7.04733 13.4417 8.00601 13.4356C8.96469 13.4417 9.69033 13.2264 10.1821 13.0034C10.4285 12.8917 10.6154 12.7783 10.7431 12.6908C10.8069 12.647 10.856 12.6097 10.8903 12.5821C10.9075 12.5684 10.921 12.557 10.9308 12.5486L10.9428 12.5381L10.9468 12.5345L10.9482 12.5332L10.9488 12.5326L10.9493 12.5322C11.0815 12.4107 11.0902 12.2051 10.9687 12.073C10.8475 11.9411 10.6425 11.9321 10.5103 12.0528L10.5068 12.0559C10.5025 12.0596 10.4947 12.0662 10.4835 12.0751C10.4612 12.0931 10.4252 12.1207 10.3755 12.1547C10.276 12.2229 10.1221 12.3169 9.91362 12.4114C9.49968 12.5992 8.86723 12.7908 8.01192 12.7856V12.7855Z" fill="white"/>
</svg>
