<svg width="24" height="24" viewBox="0 0 24 24" fill="none" xmlns="http://www.w3.org/2000/svg">
<rect width="24" height="24" rx="12" fill="#FF4500"/>
<path fill-rule="evenodd" clip-rule="evenodd" d="M19.688 11.0583C19.882 11.3351 19.9918 11.6621 20.0041 11.9999C20.0092 12.3305 19.9207 12.6559 19.7486 12.9383C19.5766 13.2207 19.3282 13.4487 19.0321 13.5959C19.0456 13.7716 19.0456 13.9482 19.0321 14.1239C19.0321 16.8119 15.9001 18.9959 12.0361 18.9959C8.1721 18.9959 5.0401 16.8119 5.0401 14.1239C5.02659 13.9482 5.02659 13.7716 5.0401 13.5959C4.80929 13.4899 4.6043 13.3349 4.43933 13.1418C4.27437 12.9486 4.15337 12.7219 4.08472 12.4774C4.01608 12.2328 4.00143 11.9763 4.04179 11.7255C4.08215 11.4747 4.17656 11.2357 4.31847 11.025C4.46038 10.8144 4.6464 10.6371 4.86364 10.5055C5.08088 10.3738 5.32414 10.291 5.57657 10.2628C5.82899 10.2345 6.08454 10.2615 6.32551 10.3418C6.56649 10.4221 6.78711 10.5538 6.9721 10.7279C8.35483 9.79013 9.98156 9.27708 11.6521 9.2519L12.5401 5.0879C12.5501 5.03969 12.5695 4.99395 12.5973 4.95331C12.6251 4.91267 12.6607 4.87795 12.7019 4.85117C12.7432 4.82438 12.7895 4.80605 12.8379 4.79725C12.8863 4.78845 12.936 4.78935 12.9841 4.7999L15.9241 5.3879C16.0677 5.14123 16.2945 4.9538 16.5638 4.85927C16.8331 4.76475 17.1273 4.7693 17.3935 4.87212C17.6598 4.97495 17.8807 5.1693 18.0165 5.42031C18.1524 5.67131 18.1944 5.96252 18.1349 6.24167C18.0754 6.52082 17.9183 6.76962 17.6919 6.94342C17.4655 7.11722 17.1846 7.20463 16.8996 7.18996C16.6145 7.1753 16.344 7.05952 16.1367 6.8634C15.9293 6.66729 15.7986 6.40368 15.7681 6.1199L13.2001 5.5799L12.4201 9.3239C14.0703 9.3593 15.675 9.87196 17.0401 10.7999C17.284 10.5659 17.5903 10.4073 17.9222 10.3435C18.2541 10.2796 18.5974 10.3131 18.9107 10.44C19.224 10.5668 19.494 10.7816 19.688 11.0583ZM14.7657 14.3983C15.428 14.3983 15.9649 13.8614 15.9649 13.1991C15.9649 12.5368 15.428 11.9999 14.7657 11.9999C14.1034 11.9999 13.5665 12.5368 13.5665 13.1991C13.5665 13.8614 14.1034 14.3983 14.7657 14.3983ZM10.4063 13.1991C10.4063 13.8614 9.86944 14.3983 9.20713 14.3983C8.54482 14.3983 8.00791 13.8614 8.00791 13.1991C8.00791 12.5368 8.54482 11.9999 9.20713 11.9999C9.86944 11.9999 10.4063 12.5368 10.4063 13.1991ZM12.0119 16.7855L12.006 16.7856L12.0001 16.7855V16.7856C11.1448 16.7908 10.5123 16.5992 10.0984 16.4114C9.88987 16.3169 9.73598 16.2229 9.63657 16.1547C9.58687 16.1207 9.55084 16.0931 9.52847 16.0751C9.51729 16.0662 9.50953 16.0596 9.5052 16.0559L9.50168 16.0528L9.50134 16.0525C9.36914 15.9322 9.16438 15.9412 9.04328 16.073C8.92183 16.2051 8.93051 16.4107 9.06267 16.5322L9.06319 16.5326L9.06379 16.5332L9.06525 16.5345L9.0692 16.5381L9.08121 16.5486C9.09105 16.557 9.10455 16.5684 9.12173 16.5821C9.15607 16.6097 9.20513 16.647 9.26896 16.6908C9.39659 16.7783 9.5835 16.8917 9.82996 17.0034C10.3217 17.2264 11.0473 17.4417 12.006 17.4356C12.9647 17.4417 13.6903 17.2264 14.1821 17.0034C14.4285 16.8917 14.6154 16.7783 14.7431 16.6908C14.8069 16.647 14.856 16.6097 14.8903 16.5821C14.9075 16.5684 14.921 16.557 14.9308 16.5486L14.9428 16.5381L14.9468 16.5345L14.9482 16.5332L14.9488 16.5326L14.9493 16.5322C15.0815 16.4107 15.0902 16.2051 14.9687 16.073C14.8475 15.9411 14.6425 15.9321 14.5103 16.0528L14.5068 16.0559C14.5025 16.0596 14.4947 16.0662 14.4835 16.0751C14.4612 16.0931 14.4252 16.1207 14.3755 16.1547C14.276 16.2229 14.1221 16.3169 13.9136 16.4114C13.4997 16.5992 12.8672 16.7908 12.0119 16.7856V16.7855Z" fill="white"/>
</svg>
