<svg width="12" height="11" viewBox="0 0 12 11" fill="none" xmlns="http://www.w3.org/2000/svg">
<path fill-rule="evenodd" clip-rule="evenodd" d="M1.86211 3.72596L3.64439 3.09692C3.27642 3.59234 2.96029 4.12442 2.70108 4.6848L1.86211 3.72596ZM0.623723 3.82925L2.27495 5.71635L2.03577 6.3143C1.96149 6.5 2.00503 6.7121 2.14646 6.85355L2.30327 7.01035C1.45172 7.97055 0.981363 8.9748 0.525673 10.3419C0.465782 10.5216 0.512543 10.7197 0.646458 10.8535C0.780378 10.9874 0.978458 11.0343 1.15813 10.9743C2.5252 10.5187 3.52946 10.0483 4.48965 9.19675L4.64646 9.35355C4.78789 9.495 5 9.5385 5.18571 9.46425L5.78366 9.22505L7.67076 10.8763C7.79556 10.9855 7.96636 11.0257 8.12676 10.9837C8.28721 10.9416 8.41631 10.8228 8.47151 10.6664L9.96456 6.4361C10.9489 5.2714 11.5 3.7874 11.5 2.24039V0.5C11.5 0.22386 11.2762 0 11 0H9.25961C7.71261 0 6.22861 0.551125 5.06391 1.53545L0.833603 3.02851C0.677233 3.0837 0.558393 3.21283 0.516353 3.37323C0.474308 3.53364 0.514528 3.70445 0.623723 3.82925ZM1.84265 9.65735C2.1564 8.8996 2.50851 8.29645 3.01179 7.7189L3.78113 8.4882C3.20358 8.9915 2.60043 9.3436 1.84265 9.65735ZM5.12041 8.4133L4.85357 8.14645L3.35357 6.64645L3.0867 6.3796L3.44165 5.4922C3.76734 4.678 4.22469 3.92283 4.79541 3.257L5.08371 2.92064C6.12861 1.70159 7.65401 1 9.25961 1H10.5V2.24039C10.5 3.84598 9.79841 5.3714 8.57936 6.4163L8.24301 6.7046C7.57716 7.2753 6.82201 7.73265 6.00781 8.05835L5.12041 8.4133ZM7.77406 9.6379L6.81521 8.79895C7.37561 8.53975 7.90766 8.2236 8.40311 7.8556L7.77406 9.6379ZM7.50001 3.5C7.50001 3.22386 7.72386 3 8.00001 3C8.27616 3 8.50001 3.22386 8.50001 3.5C8.50001 3.77614 8.27616 4 8.00001 4C7.72386 4 7.50001 3.77614 7.50001 3.5ZM8.00001 2C7.17156 2 6.50001 2.67158 6.50001 3.5C6.50001 4.32842 7.17156 5 8.00001 5C8.82846 5 9.50001 4.32842 9.50001 3.5C9.50001 2.67158 8.82846 2 8.00001 2Z" fill="white"/>
</svg>
