<svg width="12" height="11" viewBox="0 0 12 11" fill="none" xmlns="http://www.w3.org/2000/svg">
<path d="M0.812438 4.80498C3.98485 3.39375 6.10029 2.46339 7.15875 2.01389C10.1809 0.730457 10.8089 0.507512 11.2182 0.500071C11.3082 0.498531 11.5095 0.52131 11.6399 0.62933C11.7499 0.720541 11.7802 0.843753 11.7947 0.930231C11.8092 1.01671 11.8273 1.21371 11.8129 1.36764C11.6492 3.12455 10.9405 7.38813 10.58 9.3559C10.4275 10.1885 10.1271 10.4677 9.83631 10.495C9.20435 10.5544 8.72448 10.0686 8.1124 9.65897C7.15461 9.01793 6.61352 8.61888 5.68383 7.99335C4.6094 7.27044 5.30591 6.87312 5.91822 6.22378C6.07847 6.05384 8.86288 3.46797 8.91677 3.23339C8.92351 3.20406 8.92976 3.0947 8.86613 3.03695C8.8025 2.97921 8.70859 2.99895 8.64082 3.01466C8.54476 3.03692 7.01469 4.0695 4.0506 6.11239C3.6163 6.41689 3.22291 6.56525 2.87046 6.55747C2.4819 6.5489 1.73448 6.33316 1.17885 6.14875C0.497344 5.92256 -0.0443022 5.80298 0.00286306 5.41884C0.0274296 5.21876 0.297288 5.01414 0.812438 4.80498Z" fill="#4B4C4F"/>
</svg>
