<svg width="12" height="12" viewBox="0 0 12 12" fill="none" xmlns="http://www.w3.org/2000/svg">
<path d="M10.4374 7.17442C10.2249 7.30233 9.97693 7.32558 9.78802 7.22093C9.55188 7.08139 9.41019 6.76744 9.41019 6.33721V5.02326C9.41019 4.39535 9.16225 3.94186 8.7372 3.82558C8.01697 3.61628 7.47384 4.48837 7.27312 4.81395L5.99797 6.82558V4.34884C5.98616 3.77907 5.79725 3.44186 5.44304 3.33721C5.2069 3.26744 4.85269 3.30233 4.51028 3.81396L1.66479 8.30232C1.28697 7.59302 1.08625 6.80233 1.08625 6C1.08625 3.2907 3.29416 1.09302 5.99797 1.09302C8.70177 1.09302 10.9097 3.2907 10.9097 6V6.01163V6.02326C10.9333 6.54651 10.768 6.96512 10.4374 7.17442ZM11.9959 6V5.98837V5.97674C11.9841 2.68605 9.29212 0 5.99797 0C2.692 0 0 2.68605 0 6C0 9.30233 2.692 12 5.99797 12C7.52107 12 8.96153 11.4302 10.0714 10.3953C10.2957 10.186 10.3075 9.84884 10.095 9.62791C9.89428 9.40698 9.55188 9.39535 9.32755 9.59302C9.32755 9.59302 9.32755 9.59302 9.31574 9.60465C8.41841 10.4419 7.21409 10.9186 5.97435 10.9186C4.52209 10.9186 3.22332 10.2907 2.32598 9.2907L4.88811 5.24419V7.11628C4.88811 8.01163 5.24232 8.30233 5.53749 8.38372C5.83267 8.46512 6.28133 8.40698 6.76542 7.65116L8.17046 5.40698C8.21769 5.33721 8.25311 5.26744 8.30034 5.22093V6.36047C8.30034 7.19767 8.64274 7.87209 9.23309 8.19767C9.76441 8.5 10.4374 8.46511 10.9923 8.1279C11.6771 7.68604 12.0432 6.9186 11.9959 6Z" fill="white"/>
</svg>
