<svg width="32" height="32" viewBox="0 0 32 32" fill="none" xmlns="http://www.w3.org/2000/svg">
<rect width="32" height="32" rx="16" fill="white" fill-opacity="0.05"/>
<path d="M23.842 12.5417C23.842 12.7167 23.842 12.8917 23.842 13.0417C23.842 18.2167 19.892 24.1917 12.692 24.1917C10.467 24.1917 8.41699 23.5417 6.66699 22.4417C6.96699 22.4667 7.29199 22.4917 7.59199 22.4917C9.41699 22.4917 11.117 21.8667 12.467 20.8167C10.742 20.7917 9.29199 19.6417 8.81699 18.0917C9.06699 18.1417 9.29199 18.1667 9.56699 18.1667C9.91699 18.1667 10.267 18.1167 10.592 18.0167C8.79199 17.6667 7.44199 16.0917 7.44199 14.1917C7.44199 14.1667 7.44199 14.1667 7.44199 14.1417C7.96699 14.4417 8.56699 14.6167 9.21699 14.6417C8.16699 13.9417 7.46699 12.7417 7.46699 11.3667C7.46699 10.6417 7.66699 9.96675 7.99199 9.39175C9.91699 11.7667 12.817 13.3167 16.067 13.4917C15.992 13.2167 15.967 12.8917 15.967 12.5917C15.967 10.4167 17.717 8.66675 19.892 8.66675C21.017 8.66675 22.042 9.14175 22.742 9.89175C23.642 9.71675 24.467 9.39175 25.242 8.94175C24.942 9.86675 24.317 10.6167 23.517 11.1167C24.317 11.0167 25.067 10.8167 25.767 10.4917C25.267 11.2917 24.617 11.9917 23.842 12.5417Z" fill="white"/>
</svg>
