<svg width="15" height="11" viewBox="0 0 15 11" fill="none" xmlns="http://www.w3.org/2000/svg">
<path d="M12.9872 2.74557C12.9872 2.86957 12.9872 2.99356 12.9872 3.09984C12.9872 6.76651 10.1885 11 5.08704 11C3.51055 11 2.05805 10.5395 0.818115 9.76006C1.03068 9.77778 1.26095 9.79549 1.47351 9.79549C2.76659 9.79549 3.97109 9.35266 4.92762 8.6087C3.70539 8.59098 2.67802 7.77617 2.34146 6.67794C2.5186 6.71337 2.67802 6.73108 2.87287 6.73108C3.12085 6.73108 3.36884 6.69565 3.59911 6.6248C2.32375 6.37681 1.36723 5.26087 1.36723 3.91465C1.36723 3.89694 1.36723 3.89694 1.36723 3.87923C1.73921 4.09179 2.16433 4.21578 2.62488 4.23349C1.88092 3.73752 1.38494 2.88728 1.38494 1.91304C1.38494 1.39936 1.52665 0.921095 1.75692 0.513688C3.12085 2.19646 5.1756 3.29469 7.47834 3.41868C7.4252 3.22383 7.40749 2.99356 7.40749 2.781C7.40749 1.23994 8.64742 0 10.1885 0C10.9856 0 11.7118 0.336554 12.2078 0.867955C12.8455 0.743961 13.43 0.513688 13.9791 0.194847C13.7666 0.850242 13.3237 1.38164 12.7569 1.73591C13.3237 1.66506 13.8552 1.52335 14.3511 1.29308C13.9969 1.8599 13.5363 2.35588 12.9872 2.74557Z" fill="#4B4C4F"/>
</svg>
